<?xml version="1.0" encoding="utf-8"?>
<!-- Generator: Adobe Illustrator 16.0.0, SVG Export Plug-In . SVG Version: 6.00 Build 0)  -->
<!DOCTYPE svg PUBLIC "-//W3C//DTD SVG 1.1//EN" "http://www.w3.org/Graphics/SVG/1.1/DTD/svg11.dtd">
<svg version="1.1" id="Layer_2" xmlns="http://www.w3.org/2000/svg" xmlns:xlink="http://www.w3.org/1999/xlink" x="0px" y="0px"
	 width="1120.5px" height="320.75px" viewBox="0 0 1120.5 320.75" enable-background="new 0 0 1120.5 320.75" xml:space="preserve">
<g>
	<g>
		<rect x="42.25" y="31.376" fill="#2A2A2A" width="633.769" height="290.417"/>
		<rect x="488.021" y="146.751" fill="#2A2A2A" width="632.52" height="174.666"/>
	</g>
	<g>
		<polygon fill="#2A2A2A" points="845.711,159.668 808.871,159.418 699.438,31.418 736.445,31.418 		"/>
		<polygon fill="#2A2A2A" points="920.392,159.668 883.552,159.418 774.119,31.418 811.127,31.418 		"/>
		<polygon fill="#2A2A2A" points="995.072,159.668 958.232,159.418 848.8,31.418 885.808,31.418 		"/>
		<polygon fill="#2A2A2A" points="1069.752,159.668 1032.913,159.418 923.48,31.418 960.489,31.418 		"/>
		<polygon fill="#2A2A2A" points="785.313,176.418 748.475,176.168 639.042,48.168 676.048,48.168 		"/>
		<polygon fill="#2A2A2A" points="998.162,31.418 1107.595,159.418 1120.544,159.506 1120.544,131.627 1035.17,31.418 		"/>
		<polygon fill="#2A2A2A" points="1109.851,31.418 1072.843,31.418 1120.544,87.212 1120.544,43.97 		"/>
	</g>
	<g>
		<defs>
			<rect id="SVGID_1_" x="0.042" y="0.083" width="112.042" height="290"/>
		</defs>
		<clipPath id="SVGID_2_">
			<use xlink:href="#SVGID_1_"  overflow="visible"/>
		</clipPath>
		<g clip-path="url(#SVGID_2_)">
			<polygon fill="#8746FF" points="0.125,205.916 0.125,248.583 112.625,380.749 112.458,336.749 			"/>
			<polygon fill="#8746FF" points="-0.042,117.249 -0.042,159.916 112.458,292.082 112.292,248.082 			"/>
			<polygon fill="#8746FF" points="-0.208,28.582 -0.208,71.249 112.292,203.415 112.125,159.415 			"/>
			<polygon fill="#8746FF" points="-0.375,-60.085 -0.375,-17.418 112.125,114.748 111.959,70.748 			"/>
			<polygon fill="#8746FF" points="-0.541,-148.752 -0.541,-106.085 111.959,26.081 111.792,-17.919 			"/>
		</g>
	</g>
</g>
</svg>
