<?xml version="1.0" encoding="utf-8"?>
<!-- Generator: Adobe Illustrator 16.0.0, SVG Export Plug-In . SVG Version: 6.00 Build 0)  -->
<!DOCTYPE svg PUBLIC "-//W3C//DTD SVG 1.1//EN" "http://www.w3.org/Graphics/SVG/1.1/DTD/svg11.dtd">
<svg version="1.1" id="Layer_1" xmlns="http://www.w3.org/2000/svg" xmlns:xlink="http://www.w3.org/1999/xlink" x="0px" y="0px"
	 width="60px" height="60px" viewBox="0 0 60 60" enable-background="new 0 0 60 60" xml:space="preserve">
<g>
	<g>
		<defs>
			<circle id="SVGID_1_" cx="30.058" cy="29.96" r="28.542"/>
		</defs>
		<clipPath id="SVGID_2_">
			<use xlink:href="#SVGID_1_"  overflow="visible"/>
		</clipPath>
		<g id="Layer_2" clip-path="url(#SVGID_2_)">
			<g id="target">
				<path fill="#FFFFFF" d="M3.784,53.619c-0.256,0.315-0.21,0.772,0.101,1.029c0.137,0.112,0.298,0.163,0.464,0.163
					c0.212,0,0.419-0.091,0.566-0.263l2.445-2.978c-0.386-0.296-0.758-0.605-1.127-0.93L3.784,53.619z"/>
				<path fill="#FFFFFF" d="M36.037,50.642c-0.367,0.324-0.74,0.634-1.124,0.93l2.444,2.978c0.146,0.175,0.354,0.266,0.566,0.266
					c0.162,0,0.326-0.054,0.463-0.166c0.311-0.255,0.356-0.713,0.101-1.025L36.037,50.642z"/>
				<path fill="#FFFFFF" d="M46.646,12.978c-0.089-0.263-0.316-0.454-0.59-0.493l-3.291-0.467l-0.469-3.292
					c-0.038-0.274-0.228-0.501-0.493-0.588c-0.259-0.088-0.55-0.019-0.744,0.175l-4.38,4.379c-0.056,0.054-0.101,0.118-0.139,0.189
					c-0.049,0.099-1.055,2.221,0.229,4.098L23.872,29.875l-1.125-1.125c-0.187-0.188-0.461-0.257-0.71-0.189
					c-0.254,0.071-0.451,0.272-0.513,0.527l-1.095,4.384c-0.061,0.249,0.011,0.511,0.191,0.692c0.14,0.138,0.327,0.213,0.517,0.213
					c0.059,0,0.118-0.006,0.178-0.021l4.38-1.098c0.253-0.063,0.453-0.26,0.524-0.514c0.07-0.253-0.003-0.524-0.188-0.707
					l-1.125-1.125l12.886-12.89c0.627,0.426,1.357,0.652,2.149,0.652c1.061,0,1.872-0.392,1.959-0.435
					c0.069-0.036,0.133-0.083,0.192-0.138l4.38-4.378C46.663,13.528,46.732,13.241,46.646,12.978z M22.141,32.645l0.484-1.949
					l1.463,1.463L22.141,32.645z M43.503,14.626l-2.022-0.291l0.9-0.899l2.022,0.288L43.503,14.626z M41.348,12.406l-0.898,0.898
					l-0.291-2.026l0.9-0.899L41.348,12.406z M37.805,13.631l1.062-1.062l0.288,2.027l-1.334,1.334
					C37.328,14.973,37.676,13.943,37.805,13.631z M41.155,16.974c-0.195,0.078-0.667,0.242-1.215,0.242
					c-0.396,0-0.762-0.086-1.087-0.253l1.338-1.337l2.023,0.29L41.155,16.974z"/>
				<path fill="#FFFFFF" d="M19.461,31.321l0.457-1.829c-0.696,0.191-1.354,0.534-1.879,1.057c-0.826,0.826-1.283,1.925-1.283,3.098
					c0,1.17,0.457,2.272,1.284,3.097c0.827,0.828,1.926,1.283,3.095,1.283c1.171,0,2.27-0.455,3.097-1.283
					c0.543-0.542,0.894-1.199,1.09-1.888l-1.863,0.466c-0.092,0.127-0.144,0.277-0.26,0.392c-1.098,1.1-3.027,1.102-4.128,0
					c-0.552-0.552-0.855-1.287-0.855-2.066c0-0.782,0.304-1.516,0.855-2.066C19.186,31.468,19.333,31.413,19.461,31.321z"/>
				<path fill="#FFFFFF" d="M25.025,26.662l1.072-1.075c-1.479-0.914-3.177-1.427-4.961-1.427c-2.535,0-4.917,0.985-6.71,2.778
					c-3.698,3.699-3.698,9.718,0,13.418c1.793,1.793,4.175,2.78,6.71,2.78c2.534,0,4.917-0.987,6.708-2.78
					c1.792-1.791,2.78-4.174,2.78-6.707c0-1.787-0.513-3.483-1.43-4.965l-1.073,1.073c0.658,1.182,1.044,2.5,1.044,3.892
					c0,2.144-0.837,4.16-2.354,5.677c-1.515,1.517-3.532,2.353-5.675,2.353c-2.145,0-4.16-0.836-5.677-2.353
					c-3.132-3.129-3.132-8.226,0-11.357c1.514-1.515,3.531-2.349,5.677-2.349C22.525,25.619,23.844,26.001,25.025,26.662z"/>
				<path fill="#FFFFFF" d="M30.304,21.382c-2.635-1.978-5.814-3.063-9.167-3.063c-4.094,0-7.943,1.594-10.839,4.491
					c-5.976,5.976-5.976,15.701,0,21.678c2.896,2.897,6.746,4.491,10.839,4.491s7.942-1.595,10.836-4.491
					c5.45-5.45,5.915-14.008,1.427-20.006l-1.066,1.065c3.92,5.418,3.487,13.03-1.391,17.908c-2.619,2.62-6.102,4.063-9.806,4.063
					s-7.186-1.443-9.807-4.063c-5.407-5.407-5.407-14.206,0-19.614c2.621-2.618,6.103-4.062,9.807-4.062
					c2.961,0,5.773,0.938,8.125,2.648L30.304,21.382z"/>
				<path fill="#FFFFFF" d="M36.526,21.351c2.791,3.481,4.318,7.771,4.318,12.297c0,5.262-2.05,10.212-5.773,13.935
					c-3.722,3.725-8.672,5.774-13.935,5.774c-5.265,0-10.212-2.05-13.936-5.774c-7.683-7.682-7.683-20.186,0-27.871
					c3.724-3.722,8.671-5.772,13.936-5.772c4.525,0,8.813,1.524,12.294,4.316l1.043-1.042c-3.764-3.066-8.423-4.734-13.337-4.734
					c-5.654,0-10.969,2.201-14.967,6.201c-8.252,8.253-8.252,21.684,0,29.935c3.998,3.999,9.313,6.202,14.967,6.202
					c5.652,0,10.967-2.203,14.964-6.202c4.004-3.998,6.203-9.314,6.203-14.967c0-4.917-1.669-9.576-4.736-13.339L36.526,21.351z"/>
			</g>
		</g>
	</g>
	<circle fill="none" stroke="#FFFFFF" stroke-miterlimit="10" cx="30.058" cy="29.96" r="28.542"/>
</g>
</svg>
