<?xml version="1.0" encoding="utf-8"?>
<!-- Generator: Adobe Illustrator 16.0.0, SVG Export Plug-In . SVG Version: 6.00 Build 0)  -->
<!DOCTYPE svg PUBLIC "-//W3C//DTD SVG 1.1//EN" "http://www.w3.org/Graphics/SVG/1.1/DTD/svg11.dtd">
<svg version="1.1" id="Layer_1" xmlns="http://www.w3.org/2000/svg" xmlns:xlink="http://www.w3.org/1999/xlink" x="0px" y="0px"
	 width="60px" height="60px" viewBox="0 0 60 60" enable-background="new 0 0 60 60" xml:space="preserve">
<g>
	<path fill="#4D4D4D" d="M4.471,52.898c0.108-4.271,1.502-14.144,11.802-17.332c1.5-0.467,2.425-1.353,2.923-2.357
		c0.262-0.523,0.393-1.075,0.426-1.616c0.03-0.519-0.038-1.03-0.184-1.5c-0.302-0.98-0.968-1.813-1.811-2.24
		c-1.735-1.024-3.144-2.473-4.125-4.174c-0.994-1.718-1.542-3.701-1.542-5.77c0-3.187,1.293-6.073,3.378-8.16
		c2.088-2.088,4.974-3.379,8.16-3.379c3.188,0,6.074,1.292,8.16,3.379c2.089,2.088,3.38,4.973,3.38,8.16
		c0,2.069-0.55,4.052-1.539,5.77c-0.981,1.701-2.392,3.15-4.126,4.174c-0.841,0.427-1.507,1.261-1.813,2.241
		c-0.143,0.467-0.213,0.98-0.182,1.499c0.031,0.541,0.166,1.093,0.425,1.616c0.497,1.006,1.421,1.893,2.925,2.357
		c3.158,0.979,5.469,2.567,7.155,4.424c2.19,2.41,3.362,5.295,3.979,7.873c0.277,1.173,1.455,1.897,2.629,1.619
		c1.176-0.278,1.9-1.457,1.621-2.631c-0.762-3.188-2.227-6.769-4.989-9.81c-2.167-2.383-5.112-4.421-9.11-5.659l-0.025-0.009
		c2.224-1.402,4.027-3.301,5.298-5.502c1.379-2.388,2.14-5.126,2.14-7.963c0-4.397-1.783-8.38-4.664-11.262
		c-2.883-2.882-6.865-4.666-11.264-4.666c-4.396,0-8.378,1.783-11.261,4.666C9.356,9.53,7.573,13.512,7.573,17.91
		c0,2.837,0.759,5.576,2.139,7.963c1.271,2.201,3.076,4.1,5.299,5.502l-0.026,0.009C-0.663,36.23,0.001,52.973,0.146,55.064v0.028
		c0,1.212,0.984,2.194,2.194,2.194h42.41v-4.389H4.471L4.471,52.898z"/>
	<path fill="#DB70E1" d="M46.167,33.094c1.944-1.289,3.53-2.997,4.667-4.964c1.29-2.235,2.003-4.798,2.003-7.454
		c0-3.367-1.132-6.528-3.081-9.066c-1.947-2.541-4.712-4.457-7.97-5.328c-1.168-0.313-2.369,0.382-2.683,1.551
		s0.383,2.37,1.553,2.683c2.301,0.615,4.248,1.964,5.621,3.751c1.371,1.79,2.171,4.024,2.171,6.41c0,1.886-0.498,3.694-1.401,5.26
		c-0.904,1.567-2.216,2.902-3.834,3.842c-0.779,0.426-1.395,1.211-1.678,2.128c-0.141,0.452-0.205,0.948-0.176,1.452
		c0.031,0.519,0.16,1.049,0.41,1.552c0.478,0.967,1.365,1.819,2.806,2.266c9.302,2.882,10.671,11.722,10.803,15.726H44.75v4.389
		h12.764c1.201,0,2.18-0.969,2.192-2.168C59.834,53.38,60.563,37.777,46.167,33.094z"/>
	<g>
		<circle fill="#4D4D4D" cx="47.523" cy="55.088" r="2.202"/>
		<rect x="37.725" y="52.917" fill="#4D4D4D" width="9.799" height="4.372"/>
	</g>
</g>
</svg>
