<?xml version="1.0" encoding="utf-8"?>
<!-- Generator: Adobe Illustrator 16.0.0, SVG Export Plug-In . SVG Version: 6.00 Build 0)  -->
<!DOCTYPE svg PUBLIC "-//W3C//DTD SVG 1.1//EN" "http://www.w3.org/Graphics/SVG/1.1/DTD/svg11.dtd">
<svg version="1.1" id="Layer_1" xmlns="http://www.w3.org/2000/svg" xmlns:xlink="http://www.w3.org/1999/xlink" x="0px" y="0px"
	 width="60px" height="60px" viewBox="0 0 60 60" enable-background="new 0 0 60 60" xml:space="preserve">
<g>
	<path fill="#4D4D4D" d="M59.378,22.616c-0.41-0.459-0.965-0.714-1.535-0.76v-0.007l-19.443-1.524
		c-1.273-0.101-2.385,0.851-2.485,2.123c-0.099,1.272,0.853,2.386,2.125,2.485l14.075,1.105L40.997,36.01
		c-0.609,0.545-0.908,1.397-0.705,2.25l3.303,13.735l-12.924-7.493c-0.711-0.412-1.618-0.435-2.366,0.023l-12.038,7.382l0.743-3.466
		l-5.186,2.162l-1.204,5.608c-0.265,1.247,0.534,2.473,1.78,2.737c0.63,0.134,1.254-0.004,1.752-0.333l15.387-9.434l16.394,9.503
		c1.103,0.64,2.515,0.264,3.153-0.839c0.336-0.577,0.392-1.238,0.21-1.827l-4.204-17.496l14.104-12.654
		C60.146,25.022,60.227,23.564,59.378,22.616z"/>
	<path fill-rule="evenodd" clip-rule="evenodd" fill="#843FFE" d="M30.861,1.911c-1.177-0.483-2.525,0.079-3.008,1.257
		l-6.932,16.744L2.074,21.858c-1.27,0.13-2.192,1.264-2.062,2.53c0.063,0.613,0.36,1.146,0.797,1.517l13.787,11.771l-2.772,12.928
		l0.009-0.004l-1.182,5.464c-0.283,1.312,0.49,2.593,1.728,2.859c1.235,0.268,2.468-0.577,2.752-1.891l1.855-8.581l0.023-0.01
		l2.39-11.146l-0.001-0.002c0.169-0.799-0.094-1.661-0.756-2.23L7.9,25.895l14.861-1.534v-0.001
		c0.816-0.083,1.561-0.604,1.897-1.417l7.459-18.022C32.603,3.744,32.039,2.396,30.861,1.911z"/>
</g>
</svg>
