<?xml version="1.0" encoding="utf-8"?>
<!-- Generator: Adobe Illustrator 16.0.0, SVG Export Plug-In . SVG Version: 6.00 Build 0)  -->
<!DOCTYPE svg PUBLIC "-//W3C//DTD SVG 1.1//EN" "http://www.w3.org/Graphics/SVG/1.1/DTD/svg11.dtd">
<svg version="1.1" id="Layer_1" xmlns="http://www.w3.org/2000/svg" xmlns:xlink="http://www.w3.org/1999/xlink" x="0px" y="0px"
	 width="60px" height="60px" viewBox="0 0 60 60" enable-background="new 0 0 60 60" xml:space="preserve">
<g>
	<circle fill-rule="evenodd" clip-rule="evenodd" fill="#37C4EE" cx="46.695" cy="47.994" r="2.284"/>
	<path fill-rule="evenodd" clip-rule="evenodd" fill="#37C4EE" d="M28.813,36.173c1.685,0,3.371-0.421,4.888-1.263l3.794,3.794
		c0.893,0.891,2.338,0.891,3.229,0c0.891-0.892,0.891-2.337,0-3.229l-3.628-3.629c1.204-1.728,1.808-3.748,1.808-5.767
		c0-2.582-0.985-5.165-2.955-7.135l-0.004-0.002c-1.971-1.969-4.551-2.955-7.132-2.955c-2.583,0-5.166,0.985-7.136,2.955v0.002
		l-0.002,0.001c-1.97,1.97-2.956,4.553-2.956,7.134c0,2.582,0.985,5.165,2.956,7.135h0.002v0.002
		C23.648,35.188,26.23,36.173,28.813,36.173z M24.903,22.175l0.002-0.002l0.003-0.001c1.076-1.078,2.492-1.617,3.905-1.617
		c1.413,0,2.825,0.54,3.904,1.617l0.002,0.001v0.001c1.077,1.078,1.616,2.492,1.616,3.906s-0.539,2.829-1.616,3.906v0.001h-0.002
		c-1.075,1.078-2.492,1.617-3.904,1.617c-1.417,0-2.829-0.539-3.908-1.617l-0.002-0.002c-1.076-1.078-1.616-2.492-1.616-3.905
		S23.828,23.253,24.903,22.175z"/>
	<path fill-rule="evenodd" clip-rule="evenodd" fill="#4D4D4D" d="M58.496,6.587L58.5,6.582c-0.922-0.925-2.203-1.499-3.607-1.499
		H5.222c-1.399,0-2.673,0.574-3.6,1.499L1.617,6.587L1.611,6.591c-0.925,0.928-1.498,2.204-1.498,3.601v34.977
		c0,1.407,0.573,2.686,1.498,3.61l0.005-0.005c0.927,0.927,2.205,1.503,3.605,1.503c9.963,0,26.23,0,36.195,0
		c1.259,0,2.283-1.022,2.283-2.284c0-1.261-1.024-2.283-2.283-2.283c-9.965,0-26.232,0-36.195,0c-0.152,0-0.288-0.058-0.381-0.151
		v-0.008c-0.099-0.1-0.161-0.234-0.161-0.382V10.192c0-0.153,0.06-0.287,0.152-0.381l0.009-0.009C4.935,9.709,5.07,9.65,5.222,9.65
		h49.67c0.146,0,0.281,0.063,0.38,0.161h0.011c0.092,0.094,0.15,0.228,0.15,0.381v34.977c0,0.147-0.063,0.282-0.161,0.382
		c-0.099,0.097-0.234,0.159-0.38,0.159c-1.844,0-1.075,0-2.918,0c-1.262,0-2.283,1.022-2.283,2.283c0,1.262,1.021,2.284,2.283,2.284
		c1.843,0,1.074,0,2.918,0c1.404,0,2.686-0.574,3.607-1.498c0.926-0.925,1.5-2.203,1.5-3.61V10.192
		C60,8.792,59.424,7.516,58.496,6.587z"/>
	<path fill-rule="evenodd" clip-rule="evenodd" fill="#37C4EE" d="M37.341,52.118c-6.28,0-8.29,0-14.57,0
		c-1.261,0-2.283,1.022-2.283,2.283c0,1.263,1.022,2.285,2.283,2.285c6.28,0,8.29,0,14.57,0c1.263,0,2.287-1.022,2.287-2.285
		C39.628,53.141,38.604,52.118,37.341,52.118z"/>
</g>
</svg>
