<?xml version="1.0" encoding="utf-8"?>
<!-- Generator: Adobe Illustrator 16.0.0, SVG Export Plug-In . SVG Version: 6.00 Build 0)  -->
<!DOCTYPE svg PUBLIC "-//W3C//DTD SVG 1.1//EN" "http://www.w3.org/Graphics/SVG/1.1/DTD/svg11.dtd">
<svg version="1.1" id="Layer_1" xmlns="http://www.w3.org/2000/svg" xmlns:xlink="http://www.w3.org/1999/xlink" x="0px" y="0px"
	 width="60px" height="60px" viewBox="0 0 60 60" enable-background="new 0 0 60 60" xml:space="preserve">
<g>
	<path fill="#4D4D4D" d="M30.81,60.021c1.774,0,3.241-1.375,3.391-3.112l-6.49,1.11C28.249,59.196,29.438,60.021,30.81,60.021z"/>
	<path fill="#4D4D4D" d="M29.979,9.545c1.133,0,2.06-0.926,2.06-2.058V2.06c0-1.132-0.927-2.06-2.06-2.06
		c-1.133,0-2.061,0.928-2.061,2.06v5.427C27.919,8.619,28.846,9.545,29.979,9.545z"/>
	<path fill="#4D4D4D" d="M18.411,14.332c0.802-0.803,0.802-2.113,0-2.913L14.575,7.58c-0.804-0.801-2.112-0.801-2.916,0.002V7.58
		c-0.799,0.801-0.799,2.112,0,2.914l3.839,3.838C16.299,15.132,17.611,15.132,18.411,14.332z"/>
	<path fill="#4D4D4D" d="M34.373,52.653l-7.815,1.336c-0.854,0.146-1.331,0.981-1.331,1.905c0,0.925,0.932,1.565,1.786,1.42
		l7.816-1.338c0.856-0.145,1.33-0.979,1.33-1.904C36.158,53.148,35.228,52.506,34.373,52.653z"/>
	<path fill="#4D4D4D" d="M11.553,23.834l-5.425,0.001c-1.133,0-2.06,0.927-2.06,2.06c0,1.133,0.927,2.061,2.06,2.061h5.425
		c1.134,0,2.06-0.928,2.06-2.061C13.613,24.762,12.688,23.834,11.553,23.834z"/>
	<path fill="#4D4D4D" d="M55.873,25.911c0-1.132-0.926-2.061-2.06-2.061h-5.425c-1.133,0-2.061,0.928-2.061,2.061
		c0,1.134,0.928,2.06,2.061,2.06h5.425c1.134,0,2.062-0.925,2.062-2.06H55.873z"/>
	<path fill="#4D4D4D" d="M48.294,7.593c-0.801-0.801-2.111-0.801-2.912,0l-3.838,3.836c-0.802,0.801-0.802,2.112,0,2.913
		c0.801,0.803,2.112,0.801,2.914,0l3.836-3.836C49.094,9.706,49.096,8.394,48.294,7.593z"/>
	<path fill="#4D4D4D" d="M34.621,48.423l-8.342,1.336c-0.912,0.146-1.419,0.98-1.419,1.905c0,0.924,0.994,1.565,1.907,1.419
		l8.338-1.337c0.913-0.144,1.419-0.979,1.419-1.903v-0.001C36.524,48.917,35.534,48.276,34.621,48.423z"/>
	<path fill="#4D4D4D" d="M29.993,11.773h-0.026c-8.082,0-14.244,6.858-14.244,14.807c0,2.535,0.617,5.029,1.826,7.257
		c0.033,0.061,0.066,0.121,0.101,0.182c0.042,0.071,0.088,0.142,0.129,0.211c0.109,0.175,0.217,0.346,0.328,0.519
		c0.147,0.229,0.299,0.477,0.456,0.704c0.756,1.268,1.302,2.396,1.625,3.605l0.058,0.341l0.304,3.742
		c0.074,0.921,0.89,1.613,1.812,1.538v-0.002c0.921-0.074,1.612-0.888,1.537-1.81l-0.283-3.467
		c-0.006-0.098-0.014-0.194-0.022-0.289l-0.009-0.117h-0.006c-0.193-1.682-0.94-3.26-2.211-5.374
		c-0.116-0.156-0.892-1.376-0.876-1.376c-0.907-1.671-1.422-3.604-1.422-5.665c0-6.331,4.88-11.462,10.898-11.462h0.013h0.011
		c6.021,0,10.9,5.131,10.9,11.462c0,2.061-0.518,3.994-1.423,5.665c0.017,0-0.759,1.22-0.875,1.376
		c-2.202,3.661-2.581,6.128-2.497,8.732c-0.1,1.513-1.566,1.927-4.883,2.421c-0.043,0.002-0.09,0.007-0.134,0.013l-1.523,0.224
		l-0.085,0.012l-3.9,0.571c-0.915,0.133-1.553,0.991-1.419,1.905s0.991,1.553,1.905,1.42l3.414-0.5v0.002
		c0.668-0.096,1.335-0.191,2.001-0.296l0.094-0.012l0.067-0.011c0.453-0.072,0.906-0.147,1.358-0.225
		c2.205-0.382,4.532-0.965,5.759-3.04c0.409-0.693,0.631-1.46,0.685-2.261l0.011-0.165l-0.004-0.165
		c-0.087-2.684,0.593-4.51,1.953-6.794c0.161-0.228,0.312-0.475,0.459-0.704c0.108-0.173,0.219-0.344,0.326-0.519
		c0.044-0.069,0.087-0.14,0.131-0.211c0.034-0.061,0.068-0.121,0.099-0.182c1.209-2.229,1.828-4.723,1.828-7.257
		C44.237,18.632,38.075,11.773,29.993,11.773z"/>
	<path fill="#843FFE" d="M31.109,41.939c0.524,0,0.951-0.429,0.951-0.953v-6.2l0.068-0.002c1.28-0.027,2.209-0.331,3.216-1.145
		c3.546-2.858-0.009-7.043-3.366-4.215c-1.121,0.945-1.708,2.049-1.808,3.457h-0.26h-0.264c-0.099-1.407-0.685-2.511-1.808-3.457
		c-3.357-2.828-6.914,1.356-3.365,4.215c1.006,0.813,1.936,1.117,3.217,1.145l0.064,0.002v6.2c0,0.524,0.429,0.953,0.954,0.953
		c0.525,0,0.952-0.429,0.952-0.953v-6.2h0.249h0.245v6.2C30.156,41.511,30.584,41.939,31.109,41.939z M33.207,30.881
		c0.68-0.574,2.347-0.873,1.396,0.728c-0.118,0.2-0.274,0.4-0.455,0.547c-0.674,0.544-1.16,0.694-2.043,0.72l-0.021,0.002
		C32.174,32.053,32.525,31.455,33.207,30.881z M27.714,32.876c-0.885-0.025-1.371-0.177-2.045-0.72
		c-0.18-0.146-0.336-0.349-0.455-0.547c-0.951-1.598,0.715-1.304,1.397-0.728c0.682,0.574,1.034,1.171,1.124,1.997L27.714,32.876z"
		/>
</g>
</svg>
