<?xml version="1.0" encoding="utf-8"?>
<!-- Generator: Adobe Illustrator 16.0.0, SVG Export Plug-In . SVG Version: 6.00 Build 0)  -->
<!DOCTYPE svg PUBLIC "-//W3C//DTD SVG 1.1//EN" "http://www.w3.org/Graphics/SVG/1.1/DTD/svg11.dtd">
<svg version="1.1" id="Layer_1" xmlns="http://www.w3.org/2000/svg" xmlns:xlink="http://www.w3.org/1999/xlink" x="0px" y="0px"
	 width="60px" height="60px" viewBox="0 0 60 60" enable-background="new 0 0 60 60" xml:space="preserve">
<g>
	<path fill-rule="evenodd" clip-rule="evenodd" fill="#37C4EE" d="M19.146,22.547c0.696-0.697,1.827-0.697,2.524,0
		c0.696,0.697,0.696,1.828,0,2.524l-4.915,4.916l4.915,4.915c0.696,0.697,0.696,1.828,0,2.525c-0.698,0.696-1.828,0.696-2.524,0
		l-6.178-6.177c-0.698-0.698-0.698-1.828,0-2.525L19.146,22.547L19.146,22.547z M34.391,20.028c0.307-0.532,0.989-0.713,1.52-0.405
		c0.534,0.308,0.716,0.99,0.407,1.521l-10.856,18.8c-0.307,0.533-0.989,0.715-1.52,0.407c-0.532-0.309-0.715-0.99-0.405-1.521
		L34.391,20.028L34.391,20.028z M40.708,22.547c-0.698-0.697-1.828-0.697-2.524,0c-0.698,0.697-0.698,1.828,0,2.524l4.914,4.916
		l-4.914,4.915c-0.698,0.697-0.698,1.828,0,2.525c0.696,0.696,1.826,0.696,2.524,0l6.178-6.177c0.696-0.698,0.696-1.828,0-2.525
		L40.708,22.547z"/>
	<circle fill-rule="evenodd" clip-rule="evenodd" fill="#37C4EE" cx="16.507" cy="52.246" r="2.301"/>
	<path fill-rule="evenodd" clip-rule="evenodd" fill="#4D4D4D" d="M4.903,5.427h50.045c1.408,0,2.693,0.579,3.627,1.51l0.006,0.005
		l0.003,0.004c0.933,0.936,1.51,2.22,1.51,3.627V49.4c0,1.418-0.577,2.705-1.51,3.637l-0.003-0.005
		c-0.936,0.935-2.224,1.515-3.633,1.515c-10.039,0-22.365,0-32.405,0c-1.27,0-2.3-1.03-2.3-2.3c0-1.271,1.03-2.302,2.3-2.302
		c10.04,0,22.366,0,32.405,0c0.151,0,0.289-0.058,0.385-0.152v-0.009c0.098-0.1,0.16-0.236,0.16-0.384V10.573
		c0-0.153-0.059-0.29-0.152-0.383l-0.008-0.009c-0.096-0.094-0.233-0.153-0.385-0.153H4.903c-0.146,0-0.283,0.063-0.383,0.162H4.514
		c-0.096,0.094-0.155,0.23-0.155,0.383V49.4c0,0.147,0.063,0.284,0.162,0.384c0.1,0.099,0.236,0.161,0.383,0.161
		c1.857,0,3.713,0,5.567,0c1.272,0,2.301,1.03,2.301,2.302c0,1.27-1.029,2.3-2.301,2.3c-1.854,0-3.71,0-5.567,0
		c-1.415,0-2.704-0.579-3.634-1.51c-0.932-0.932-1.511-2.219-1.511-3.637V10.573c0-1.41,0.581-2.696,1.515-3.631L1.269,6.937
		C2.2,6.005,3.489,5.427,4.903,5.427z"/>
</g>
</svg>
