<?xml version="1.0" encoding="utf-8"?>
<!-- Generator: Adobe Illustrator 16.0.0, SVG Export Plug-In . SVG Version: 6.00 Build 0)  -->
<!DOCTYPE svg PUBLIC "-//W3C//DTD SVG 1.1//EN" "http://www.w3.org/Graphics/SVG/1.1/DTD/svg11.dtd">
<svg version="1.1" id="Layer_1" xmlns="http://www.w3.org/2000/svg" xmlns:xlink="http://www.w3.org/1999/xlink" x="0px" y="0px"
	 width="60px" height="60px" viewBox="0 0 60 60" enable-background="new 0 0 60 60" xml:space="preserve">
<g>
	<path fill="#37C4EE" d="M5.837,53.354c-1.261,0-2.282-1.022-2.282-2.283c0-1.26,1.021-2.28,2.282-2.28h8.338v4.563H5.837
		L5.837,53.354z M21.807,48.789h32.169c1.258,0,2.279,1.021,2.279,2.281s-1.021,2.281-2.279,2.281H21.807V48.789z"/>
	<path fill="#4D4D4D" d="M5.103,4h49.608c1.396,0,2.67,0.574,3.596,1.498l0.004,0.005l0.004,0.004
		c0.924,0.927,1.498,2.201,1.498,3.597v32.798c0,1.406-0.574,2.683-1.498,3.605l-0.004-0.005c-0.928,0.927-2.201,1.502-3.6,1.502
		c-9.952,0-20.615,0-30.565,0c-1.259,0-2.282-1.021-2.282-2.28s1.023-2.281,2.282-2.281c9.95,0,20.613,0,30.565,0
		c0.152,0,0.287-0.058,0.379-0.151v-0.008c0.1-0.101,0.161-0.233,0.161-0.382V9.103c0-0.152-0.06-0.287-0.149-0.381L55.09,8.713
		c-0.092-0.093-0.227-0.151-0.379-0.151H5.103c-0.146,0-0.282,0.062-0.379,0.16h-0.01C4.621,8.816,4.561,8.951,4.561,9.103v32.799
		c0,0.146,0.062,0.281,0.162,0.381c0.098,0.099,0.234,0.16,0.379,0.16c1.838,0,5.101,0,6.938,0c1.261,0,2.281,1.021,2.281,2.279
		c0,1.262-1.02,2.281-2.281,2.281c-1.838,0-5.101,0-6.938,0c-1.406,0-2.682-0.572-3.606-1.497C0.574,44.584,0,43.309,0,41.902V9.103
		C0,7.706,0.574,6.43,1.501,5.502L1.497,5.498C2.42,4.574,3.697,4,5.103,4z"/>
	<path fill="#37C4EE" d="M15.709,48.788c0-1.261,1.021-2.281,2.282-2.281c1.257,0,2.281,1.021,2.281,2.281v4.563
		c0,1.26-1.023,2.282-2.281,2.282c-1.26,0-2.282-1.022-2.282-2.282V48.788z"/>
	<path fill="#37C4EE" d="M25.639,15.963l11.231,7.662c1.037,0.708,1.305,2.125,0.598,3.163c-0.174,0.253-0.388,0.46-0.63,0.619
		l-11.326,7.725c-1.039,0.709-2.453,0.442-3.162-0.596c-0.268-0.394-0.396-0.841-0.396-1.284h-0.003V17.757
		c0-1.259,1.02-2.28,2.28-2.28C24.761,15.477,25.251,15.659,25.639,15.963L25.639,15.963z M31.549,25.505l-5.037-3.437v6.873
		L31.549,25.505z"/>
</g>
</svg>
