<?xml version="1.0" encoding="utf-8"?>
<!-- Generator: Adobe Illustrator 16.0.0, SVG Export Plug-In . SVG Version: 6.00 Build 0)  -->
<!DOCTYPE svg PUBLIC "-//W3C//DTD SVG 1.1//EN" "http://www.w3.org/Graphics/SVG/1.1/DTD/svg11.dtd">
<svg version="1.1" id="Layer_1" xmlns="http://www.w3.org/2000/svg" xmlns:xlink="http://www.w3.org/1999/xlink" x="0px" y="0px"
	 width="60px" height="60px" viewBox="0 0 60 60" enable-background="new 0 0 60 60" xml:space="preserve">
<g>
	<path fill="#DB70E1" d="M18.557,43.302L18.554,43.3l-0.006-0.007c-1.456-1.453-3.458-2.35-5.667-2.35
		c-2.141,0-4.092,0.845-5.537,2.223c-0.046,0.04-0.093,0.083-0.138,0.127c-1.453,1.454-2.352,3.46-2.352,5.675
		c0,2.218,0.899,4.226,2.352,5.677c1.452,1.453,3.459,2.353,5.674,2.353c2.204,0,4.205-0.896,5.662-2.347l0.004-0.006l0.006-0.004
		l0.003-0.006c1.455-1.455,2.353-3.46,2.353-5.667c0-2.202-0.896-4.204-2.346-5.659L18.557,43.302z M15.512,51.593L15.505,51.6
		c-0.665,0.668-1.592,1.08-2.624,1.08c-1.024,0-1.952-0.416-2.622-1.087c-0.671-0.671-1.086-1.6-1.086-2.625
		c0-1.022,0.416-1.95,1.086-2.62c0.029-0.031,0.06-0.063,0.087-0.095c0.659-0.616,1.551-0.993,2.535-0.993
		c1.031,0,1.958,0.412,2.624,1.077l0.007,0.011c0.667,0.666,1.077,1.592,1.077,2.62C16.589,50,16.18,50.928,15.512,51.593z"/>
	<path fill="#4D4D4D" d="M59.59,3c-0.725-1.052-2.167-1.316-3.22-0.59l-14.175,9.755c-0.648,0.449-0.997,1.17-1,1.904h-0.006v20.608
		H7.904l-3.449-5.973c-0.641-1.106-2.057-1.483-3.163-0.843c-1.106,0.641-1.486,2.057-0.845,3.165l4.034,6.988
		c0.376,0.773,1.171,1.307,2.089,1.307h36.94c1.281,0,2.321-1.041,2.321-2.321V15.28L59,6.218C60.053,5.493,60.316,4.051,59.59,3z"
		/>
	<path fill="#DB70E1" d="M41.438,43.302L41.436,43.3l-0.004-0.007c-1.457-1.453-3.461-2.35-5.668-2.35
		c-2.141,0-4.094,0.845-5.537,2.223c-0.047,0.04-0.095,0.083-0.14,0.127c-1.453,1.454-2.351,3.46-2.351,5.675
		c0,2.218,0.898,4.226,2.351,5.677c1.453,1.453,3.46,2.353,5.675,2.353c2.203,0,4.203-0.896,5.66-2.347l0.008-0.006l0.004-0.004
		l0.004-0.006c1.455-1.455,2.353-3.46,2.353-5.667c0-2.202-0.896-4.204-2.347-5.659L41.438,43.302z M38.393,51.593L38.384,51.6
		c-0.663,0.668-1.59,1.08-2.62,1.08c-1.025,0-1.951-0.416-2.623-1.087s-1.086-1.6-1.086-2.625c0-1.022,0.414-1.95,1.086-2.62
		c0.03-0.031,0.059-0.063,0.088-0.095c0.656-0.616,1.551-0.993,2.535-0.993c1.03,0,1.957,0.412,2.62,1.077l0.009,0.011
		c0.666,0.666,1.08,1.592,1.08,2.62C39.473,50,39.059,50.928,38.393,51.593z"/>
</g>
</svg>
