<?xml version="1.0" encoding="utf-8"?>
<!-- Generator: Adobe Illustrator 16.0.0, SVG Export Plug-In . SVG Version: 6.00 Build 0)  -->
<!DOCTYPE svg PUBLIC "-//W3C//DTD SVG 1.1//EN" "http://www.w3.org/Graphics/SVG/1.1/DTD/svg11.dtd">
<svg version="1.1" id="Layer_1" xmlns="http://www.w3.org/2000/svg" xmlns:xlink="http://www.w3.org/1999/xlink" x="0px" y="0px"
	 width="60px" height="60px" viewBox="0 0 60 60" enable-background="new 0 0 60 60" xml:space="preserve">
<g>
	<path fill="#4D4D4D" d="M54.414,38.441c0.484-1.295,1.93-1.949,3.225-1.463c1.293,0.486,1.947,1.934,1.461,3.228
		c-2.234,5.946-6.199,10.896-11.197,14.356C42.902,58.023,36.877,60,30.527,60c-8.429,0-16.061-3.418-21.586-8.941
		C3.417,45.533,0,37.898,0,29.47c0-6.738,2.216-13.083,6.051-18.229c3.835-5.148,9.284-9.089,15.746-11.019
		c1.327-0.395,2.723,0.36,3.118,1.686c0.395,1.327-0.36,2.723-1.687,3.117c-5.406,1.617-9.96,4.906-13.159,9.196
		C6.87,18.515,5.021,23.824,5.021,29.47c0,7.045,2.854,13.422,7.47,18.038c4.615,4.616,10.993,7.471,18.036,7.471
		c5.322,0,10.361-1.646,14.531-4.533C49.229,47.557,52.543,43.42,54.414,38.441z"/>
	<path fill="#DB70E1" d="M30.527,1.221c7.801,0,14.863,3.161,19.978,8.272c5.111,5.115,8.274,12.176,8.274,19.977
		c0,1.387-1.125,2.51-2.512,2.51h-25.74c-1.385,0-2.51-1.123-2.51-2.51V3.73C28.017,2.344,29.143,1.221,30.527,1.221L30.527,1.221z
		 M46.955,13.045c-3.646-3.65-8.504-6.088-13.916-6.67v20.586h20.585C53.042,21.547,50.604,16.691,46.955,13.045z"/>
</g>
</svg>
