<?xml version="1.0" encoding="utf-8"?>
<!-- Generator: Adobe Illustrator 16.0.0, SVG Export Plug-In . SVG Version: 6.00 Build 0)  -->
<!DOCTYPE svg PUBLIC "-//W3C//DTD SVG 1.1//EN" "http://www.w3.org/Graphics/SVG/1.1/DTD/svg11.dtd">
<svg version="1.1" id="Layer_1" xmlns="http://www.w3.org/2000/svg" xmlns:xlink="http://www.w3.org/1999/xlink" x="0px" y="0px"
	 width="60px" height="60px" viewBox="0 0 60 60" enable-background="new 0 0 60 60" xml:space="preserve">
<g>
	<path fill="#4D4D4D" d="M57.015,31.969c-1.313-1.43-2.995-2.521-4.902-3.125c0.074-0.711,0.11-1.405,0.11-2.076
		c0-5.733-2.326-10.926-6.082-14.685C42.38,8.325,37.189,6,31.454,6c-5.098,0-9.824,1.858-13.48,4.979
		c-3.225,2.753-5.613,6.496-6.675,10.813c-2.919,0.761-5.466,2.382-7.37,4.562c-2.283,2.612-3.648,6.016-3.648,9.697
		c0,4.071,1.649,7.759,4.319,10.426c2.666,2.669,6.352,4.319,10.424,4.319h8.563c1.368,0,2.479-1.109,2.479-2.476
		c0-1.369-1.111-2.479-2.479-2.479h-8.563c-2.704,0-5.152-1.096-6.923-2.867c-1.772-1.771-2.868-4.22-2.868-6.924
		c0-2.458,0.904-4.721,2.411-6.446c1.501-1.718,3.601-2.914,6.005-3.253c1.083-0.115,1.998-0.941,2.179-2.068
		c0.609-3.84,2.573-7.175,5.356-9.549c2.773-2.368,6.374-3.78,10.269-3.78c4.367,0,8.322,1.771,11.184,4.632
		c2.86,2.861,4.633,6.815,4.633,11.183c0,0.613-0.033,1.199-0.095,1.753c-0.067,0.597-0.162,1.174-0.287,1.727
		c-0.297,1.32,0.523,2.631,1.835,2.943c0.164,0.051,0.34,0.085,0.518,0.1c1.643,0.138,3.098,0.894,4.138,2.025
		c1.039,1.129,1.667,2.641,1.667,4.294c0,1.751-0.711,3.337-1.856,4.483c-1.091,1.089-2.573,1.783-4.218,1.851
		c-0.088-0.009-0.178-0.014-0.266-0.014H37.07v-0.209h-4.86c-0.032,0-0.062-0.009-0.094-0.009v2.695
		c0,1.367,1.108,2.477,2.477,2.477h13.799c0.104,0.012,0.209,0.02,0.314,0.02c3.116,0,5.941-1.266,7.984-3.309
		C58.735,45.553,60,42.729,60,39.61C60,36.68,58.873,33.99,57.015,31.969z"/>
	<path fill-rule="evenodd" clip-rule="evenodd" fill="#DB70E1" d="M41.331,35.704l-10.49-10.489c-0.966-0.967-2.535-0.967-3.502,0
		L16.894,35.662c-0.473,0.451-0.77,1.087-0.77,1.793c0,1.367,1.111,2.476,2.476,2.476h4.987c1.368,0,2.479-1.108,2.479-2.476
		c0-1.072-0.682-1.984-1.632-2.33l4.656-4.658l4.659,4.658c-0.953,0.346-1.633,1.258-1.633,2.33v2.74v5.518
		c0.008,0,0.016,0.001,0.023,0.002v2.713c0,1.352,1.111,2.447,2.484,2.447c1.37,0,2.481-1.096,2.481-2.447v-6.185
		c0-0.115-0.02-0.226-0.035-0.338v-1.719v-0.256h2.509c0.634,0,1.269-0.241,1.752-0.725C42.297,38.238,42.297,36.67,41.331,35.704z"
		/>
</g>
</svg>
