<?xml version="1.0" encoding="utf-8"?>
<!-- Generator: Adobe Illustrator 16.0.0, SVG Export Plug-In . SVG Version: 6.00 Build 0)  -->
<!DOCTYPE svg PUBLIC "-//W3C//DTD SVG 1.1//EN" "http://www.w3.org/Graphics/SVG/1.1/DTD/svg11.dtd">
<svg version="1.1" id="Layer_1" xmlns="http://www.w3.org/2000/svg" xmlns:xlink="http://www.w3.org/1999/xlink" x="0px" y="0px"
	 width="60px" height="60px" viewBox="0 0 60 60" enable-background="new 0 0 60 60" xml:space="preserve">
<g>
	<g>
		<path fill="#4D4D4D" d="M19.288,3.854h33.53c1.966,0,3.752,0.803,5.045,2.096c1.291,1.293,2.096,3.079,2.096,5.045v25.554
			c0,7.561-2.962,9.288-9.02,11.95c0-2.595,0.441-5.922-1.414-7.938c-1.172-1.274-2.787-1.748-3.807-1.748
			c-8.81,0-17.622,0-26.431,0c-1.964,0-3.75-0.805-5.044-2.098c-1.292-1.292-2.096-3.079-2.096-5.044c0-6.893,0-13.785,0-20.677
			c0-1.966,0.804-3.752,2.096-5.045C15.537,4.656,17.324,3.854,19.288,3.854L19.288,3.854z M45.719,33.844
			c2.022,0,5.2,0.909,7.455,3.361c0.566,0.613,1.075,1.318,1.497,2.122c0.22-0.849,0.319-1.796,0.319-2.779V10.994
			c0-0.596-0.244-1.139-0.641-1.533c-0.395-0.395-0.938-0.64-1.533-0.64H19.287c-0.594,0-1.139,0.245-1.532,0.64
			c-0.394,0.395-0.642,0.938-0.642,1.533c0,6.892,0,13.784,0,20.677c0,0.595,0.248,1.14,0.642,1.531
			c0.393,0.396,0.938,0.642,1.532,0.642C28.097,33.844,36.909,33.844,45.719,33.844z"/>
		<path fill="#843FFE" d="M8.437,17.218H8.054H7.22c-0.594,0-1.139,0.246-1.534,0.64c-0.392,0.394-0.64,0.937-0.64,1.533v24.78
			c0,0.981,0.101,1.931,0.32,2.779c0.422-0.804,0.931-1.509,1.499-2.123c2.255-2.451,5.431-3.361,7.454-3.361
			c9.269,0,18.537,0,27.804,0c1.373,0,2.484,1.112,2.484,2.483s-1.111,2.484-2.484,2.484c-9.268,0-18.535,0-27.804,0
			c-1.018,0-2.633,0.474-3.807,1.75C8.656,50.197,9.1,53.525,9.1,56.12c-5.969-2.622-9.021-4.601-9.021-11.949v-24.78
			c0-1.966,0.804-3.751,2.096-5.045c1.294-1.293,3.081-2.096,5.044-2.096h0.834h0.383v0.03c1.188,0.185,2.099,1.213,2.099,2.454
			c0,1.241-0.911,2.269-2.099,2.454L8.437,17.218L8.437,17.218z"/>
	</g>
	<g>
		<path fill="#843FFE" d="M25.556,25.647c2.229,0,4.045-1.817,4.045-4.044c0-2.228-1.817-4.045-4.045-4.045
			c-2.227,0-4.043,1.817-4.043,4.045C21.513,23.83,23.329,25.647,25.556,25.647z"/>
		<path fill="#843FFE" d="M36.055,25.647c2.228,0,4.045-1.817,4.045-4.044c0-2.228-1.817-4.045-4.045-4.045
			c-2.229,0-4.048,1.817-4.048,4.045C32.007,23.83,33.826,25.647,36.055,25.647z"/>
		<path fill="#843FFE" d="M46.549,25.647c2.227,0,4.045-1.817,4.045-4.044c0-2.228-1.818-4.045-4.045-4.045
			s-4.045,1.817-4.045,4.045C42.504,23.83,44.322,25.647,46.549,25.647z"/>
	</g>
</g>
</svg>
