<?xml version="1.0" encoding="utf-8"?>
<!-- Generator: Adobe Illustrator 16.0.0, SVG Export Plug-In . SVG Version: 6.00 Build 0)  -->
<!DOCTYPE svg PUBLIC "-//W3C//DTD SVG 1.1//EN" "http://www.w3.org/Graphics/SVG/1.1/DTD/svg11.dtd">
<svg version="1.1" id="Layer_1" xmlns="http://www.w3.org/2000/svg" xmlns:xlink="http://www.w3.org/1999/xlink" x="0px" y="0px"
	 width="60px" height="60px" viewBox="0 0 60 60" enable-background="new 0 0 60 60" xml:space="preserve">
<g>
	<circle fill="#37C4EE" cx="16.066" cy="13.445" r="2.281"/>
	<path fill="#37C4EE" d="M32.467,44.297c0.882,0.896,2.321,0.907,3.217,0.026c0.148-0.146,0.275-0.31,0.374-0.481v0.001
		l8.021-13.892l0.754,5.314c0.17,1.245,1.32,2.115,2.565,1.942c1.245-0.171,2.113-1.32,1.942-2.565l-1.682-11.853v-0.006
		l-0.008-0.052v-0.003l-0.011-0.053c-0.063-0.334-0.196-0.638-0.384-0.898l-0.002-0.001c-0.031-0.044-0.065-0.087-0.1-0.129
		l-0.001-0.002l-0.018-0.02l-0.005-0.005l-0.025-0.031l-0.006-0.005L47.08,21.56l-0.017-0.018l-0.022-0.023l-0.015-0.017
		l-0.002-0.001c-0.063-0.063-0.13-0.124-0.202-0.181l-0.034-0.027l-0.008-0.007l-0.038-0.028l-0.007-0.004l-0.041-0.029
		l-0.003-0.002l-0.045-0.03l-0.002,0l-0.046-0.029l-0.002-0.001l-0.044-0.027l-0.007-0.003c-0.032-0.02-0.068-0.038-0.103-0.056
		l-0.036-0.018l-0.015-0.008l-0.004-0.001c-0.05-0.024-0.101-0.046-0.153-0.066l-0.002-0.001l-0.027-0.011l-0.025-0.01l-0.026-0.009
		l-0.028-0.009l-0.024-0.008l-0.029-0.009l-0.023-0.007l-0.03-0.009l-0.022-0.006l-0.031-0.008l-0.023-0.005l-0.032-0.007
		l-0.021-0.005l-0.033-0.006L45.8,20.86l-0.021-0.004l-0.034-0.005l-0.021-0.003l-0.034-0.004l-0.022-0.003l-0.032-0.003
		l-0.024-0.002l-0.03-0.003h-0.007l-0.103-0.005H45.47l-0.029,0l-0.025-0.001h-0.01l-0.096,0.003h-0.004l-0.037,0.001l-0.018,0.001
		c-0.037,0.002-0.073,0.006-0.109,0.01l-0.048,0.006l-0.007,0.001h-0.003l-0.011,0.002l-0.01,0.001l-0.029,0.004v0
		c-0.193,0.032-0.378,0.087-0.55,0.163l-11.25,4.501c-1.165,0.467-1.734,1.791-1.267,2.957c0.469,1.167,1.792,1.733,2.959,1.266
		l5.224-2.089l-6.534,11.314l-5.179-5.294l-0.002,0.002c-0.13-0.131-0.278-0.249-0.444-0.35c-1.073-0.649-2.469-0.307-3.118,0.766
		L13.835,52.393c-0.649,1.074-0.307,2.471,0.766,3.119c1.073,0.649,2.468,0.307,3.119-0.767l9.518-15.794L32.467,44.297z"/>
	<circle fill="#37C4EE" cx="22.012" cy="13.445" r="2.281"/>
	<path fill="#37C4EE" d="M49.638,15.726c1.261,0,2.282-1.021,2.282-2.281c0-1.259-1.021-2.281-2.282-2.281H29.192
		c-1.259,0-2.28,1.021-2.28,2.281c0,1.26,1.021,2.281,2.28,2.281H49.638z"/>
	<path fill="#4D4D4D" d="M58.29,5.64l-0.006-0.004l-0.003-0.004c-0.928-0.924-2.202-1.498-3.598-1.498H5.076
		c-1.404,0-2.68,0.574-3.604,1.498l0.005,0.004C0.551,6.563-0.026,7.838-0.026,9.236v38.489c0,1.404,0.574,2.682,1.498,3.605
		c0.924,0.923,2.2,1.497,3.604,1.497c1.839,0,3.679,0,5.517,0c1.261,0,2.282-1.021,2.282-2.281s-1.021-2.28-2.282-2.28
		c-1.838,0-3.678,0-5.517,0c-0.146,0-0.28-0.063-0.379-0.16c-0.099-0.1-0.161-0.234-0.161-0.381V9.236
		c0-0.152,0.058-0.287,0.152-0.38h0.008c0.099-0.099,0.234-0.16,0.379-0.16h49.607c0.152,0,0.287,0.058,0.381,0.151l0.009,0.009
		c0.094,0.093,0.152,0.228,0.152,0.38v38.489c0,0.146-0.063,0.281-0.161,0.381v0.008c-0.094,0.094-0.229,0.152-0.381,0.152
		c-9.95,0-19.902,0-29.852,0c-1.259,0-2.281,1.021-2.281,2.28s1.021,2.281,2.281,2.281c9.95,0,19.902,0,29.852,0
		c1.397,0,2.674-0.576,3.601-1.502l0.006,0.005c0.922-0.924,1.496-2.201,1.496-3.605V9.236C59.786,7.84,59.214,6.566,58.29,5.64z"/>
	<circle fill="#37C4EE" cx="10.123" cy="13.445" r="2.281"/>
</g>
</svg>
