<?xml version="1.0" encoding="utf-8"?>
<!-- Generator: Adobe Illustrator 16.0.0, SVG Export Plug-In . SVG Version: 6.00 Build 0)  -->
<!DOCTYPE svg PUBLIC "-//W3C//DTD SVG 1.1//EN" "http://www.w3.org/Graphics/SVG/1.1/DTD/svg11.dtd">
<svg version="1.1" id="Layer_1" xmlns="http://www.w3.org/2000/svg" xmlns:xlink="http://www.w3.org/1999/xlink" x="0px" y="0px"
	 width="60px" height="60px" viewBox="0 0 60 60" enable-background="new 0 0 60 60" xml:space="preserve">
<g>
	<path fill-rule="evenodd" clip-rule="evenodd" fill="#4D4D4D" d="M24.87,5.26c6.868,0,13.085,2.784,17.584,7.285
		c3.534,3.534,6.007,8.125,6.909,13.259h-4.56c-0.841-3.896-2.794-7.378-5.513-10.097c-3.689-3.689-8.789-5.971-14.421-5.971
		c-5.632,0-10.731,2.282-14.423,5.971c-3.689,3.69-5.972,8.791-5.972,14.424c0,5.633,2.282,10.731,5.972,14.421
		c3.691,3.69,8.791,5.974,14.423,5.974c5.633,0,10.732-2.283,14.421-5.974c2.75-2.748,4.718-6.28,5.542-10.234l4.554,0.002
		c-0.88,5.189-3.368,9.832-6.933,13.397C37.955,52.216,31.737,55,24.87,55c-6.866,0-13.085-2.784-17.585-7.283
		C2.784,43.216,0,36.998,0,30.131c0-6.868,2.784-13.084,7.284-17.586C11.784,8.043,18.003,5.26,24.87,5.26z"/>
	<path fill-rule="evenodd" clip-rule="evenodd" fill="#4D4D4D" d="M24.87,13.377c4.625,0,8.814,1.875,11.846,4.907
		c2.052,2.052,3.572,4.632,4.344,7.52h-4.695c-0.621-1.65-1.59-3.132-2.811-4.356c-2.224-2.222-5.292-3.597-8.684-3.597
		c-3.392,0-6.461,1.375-8.684,3.597c-2.221,2.221-3.595,5.292-3.595,8.683s1.374,6.462,3.595,8.683
		c2.223,2.223,5.292,3.597,8.684,3.597c3.392,0,6.46-1.374,8.684-3.597c1.258-1.26,2.244-2.791,2.863-4.5l4.679,0.004
		c-0.759,2.943-2.295,5.573-4.38,7.659c-3.032,3.032-7.221,4.908-11.846,4.908c-4.626,0-8.814-1.876-11.846-4.908
		s-4.909-7.222-4.909-11.846c0-4.627,1.877-8.814,4.909-11.847C16.055,15.252,20.244,13.377,24.87,13.377z"/>
	<path fill-rule="evenodd" clip-rule="evenodd" fill="#4D4D4D" d="M24.225,24.431c0.594,0,1.166,0.091,1.702,0.261l-3.688,2.888
		l-0.011,0.011c-0.025,0.02-0.05,0.041-0.075,0.063c-0.355,0.303-0.637,0.68-0.829,1.105c-0.033,0.071-0.063,0.145-0.089,0.218
		l-0.026,0.072l-0.01,0.038l-0.016,0.043l-0.026,0.092c-0.038,0.142-0.064,0.269-0.083,0.396l-0.006,0.047l-0.016,0.141
		l-0.004,0.082l-0.006,0.08l-0.002,0.127v0.022c0.002,0.043,0.005,0.086,0.006,0.129l0.006,0.099
		c0.005,0.052,0.013,0.128,0.024,0.204l0.021,0.128l0.031,0.147l0.021,0.078l0.039,0.136l0.038,0.112l0.05,0.133l0.058,0.134
		l0.028,0.061l0.06,0.112l0.056,0.101l0.058,0.093l0.056,0.085c0.015,0.027,0.048,0.071,0.083,0.116l0.014,0.021l0.073,0.092
		c0.165,0.202,0.354,0.384,0.563,0.54l3.692,2.905c-0.565,0.186-1.166,0.287-1.792,0.287c-3.148,0-5.699-2.552-5.699-5.698
		C18.526,26.982,21.076,24.431,24.225,24.431z"/>
	<path fill-rule="evenodd" clip-rule="evenodd" fill="#843FFE" d="M30.494,23.176c0.906-0.706,2.21-0.542,2.914,0.364
		c0.706,0.904,0.542,2.21-0.363,2.913l-1.948,1.527l20.908,0.001l0.103,0.002l4.765-3.8c0.785-0.624,1.928-0.493,2.551,0.292
		c0.625,0.787,0.497,1.929-0.289,2.555l-3.782,3.013l3.782,3.017c0.786,0.624,0.914,1.769,0.289,2.555
		c-0.623,0.785-1.766,0.914-2.551,0.29l-4.727-3.767c-0.045,0.003-0.091,0.005-0.141,0.005c-8.274,0-12.656-0.012-20.932-0.012
		l1.919,1.514c0.902,0.708,1.058,2.013,0.351,2.915c-0.709,0.901-2.014,1.057-2.916,0.35l-6.574-5.176
		c-0.139-0.103-0.267-0.221-0.379-0.358h-0.001l-0.017-0.021l-0.006-0.008l-0.006-0.007l-0.001-0.004l-0.003-0.005l-0.026-0.034
		c-0.02-0.026-0.04-0.054-0.058-0.082l-0.009-0.013l-0.017-0.029l-0.003-0.001l-0.047-0.076l-0.003-0.009l-0.013-0.02l-0.012-0.023
		v-0.002l-0.044-0.082l-0.002-0.006l-0.012-0.024l-0.009-0.022l-0.012-0.025l-0.006-0.019l-0.013-0.029l-0.007-0.019l-0.011-0.028
		l-0.006-0.02l-0.017-0.048l-0.011-0.029l-0.004-0.021l-0.009-0.027l-0.004-0.021l-0.01-0.029l-0.006-0.021l-0.006-0.026
		l-0.003-0.021l-0.008-0.028l-0.004-0.023l-0.005-0.025l-0.004-0.025l-0.005-0.025l-0.005-0.025v-0.003
		c-0.007-0.051-0.012-0.101-0.016-0.15l-0.001-0.004v-0.016l-0.003-0.036C23,30.126,23,30.09,23,30.054v-0.005L23,29.999v-0.001
		l0.002-0.051l0,0l0.004-0.05v-0.004l0.003-0.044v-0.008l0.005-0.043l0.003-0.01l0.004-0.038c0.013-0.083,0.028-0.164,0.05-0.242
		l0.001-0.002l0.006-0.021l0.006-0.027l0.008-0.021l0.009-0.028l0.002-0.005l0.011-0.034l0.001-0.007l0.01-0.023l0.001-0.002
		c0.016-0.047,0.036-0.092,0.057-0.138v-0.002c0.122-0.266,0.299-0.51,0.536-0.713c0.025-0.023,0.05-0.043,0.074-0.064l0.006-0.003
		L30.494,23.176z"/>
</g>
</svg>
