<?xml version="1.0" encoding="utf-8"?>
<!-- Generator: Adobe Illustrator 16.0.0, SVG Export Plug-In . SVG Version: 6.00 Build 0)  -->
<!DOCTYPE svg PUBLIC "-//W3C//DTD SVG 1.1//EN" "http://www.w3.org/Graphics/SVG/1.1/DTD/svg11.dtd">
<svg version="1.1" id="Layer_3" xmlns="http://www.w3.org/2000/svg" xmlns:xlink="http://www.w3.org/1999/xlink" x="0px" y="0px"
	 width="60px" height="60px" viewBox="0 0 60 60" enable-background="new 0 0 60 60" xml:space="preserve">
<g>
	<g>
		<defs>
			<circle id="SVGID_1_" cx="30.022" cy="30.051" r="28.667"/>
		</defs>
		<clipPath id="SVGID_2_">
			<use xlink:href="#SVGID_1_"  overflow="visible"/>
		</clipPath>
		<g clip-path="url(#SVGID_2_)">
			<path fill="#FFFFFF" d="M71.395,42.823c-0.215,0-0.434,0.02-0.649,0.055c0.12-0.477,0.182-0.967,0.182-1.462
				c0-3.366-2.742-6.106-6.106-6.106c-0.51,0-1.018,0.063-1.512,0.188c-0.284-0.376-0.602-0.725-0.934-1.056v0.002
				c-0.295-0.295-0.608-0.569-0.937-0.822v1.221h-0.002c0.311,0.282,0.598,0.596,0.868,0.923c0,0,0,0,0.001,0
				c0.147,0.18,0.296,0.352,0.43,0.542c0.119,0.17,0.331,0.241,0.526,0.178c0.506-0.156,1.029-0.237,1.559-0.237
				c2.845,0,5.168,2.318,5.168,5.168c0,0.676-0.133,1.337-0.392,1.965c-0.072,0.177-0.031,0.376,0.1,0.511
				c0.133,0.134,0.332,0.175,0.507,0.107c0.395-0.155,0.796-0.233,1.194-0.233c1.813,0,3.288,1.473,3.288,3.287
				c0,1.815-1.476,3.29-3.288,3.29h-5.64H64.82h-8.457h-0.186h-0.753c-0.031,0-0.061-0.005-0.091-0.005v-0.004
				c-0.036,0.002-0.064,0.008-0.098,0.008h-0.752h-0.188h-8.454h-0.939h-5.637c-1.813,0-3.289-1.475-3.289-3.291
				c0-1.813,1.477-3.285,3.289-3.285c0.397,0,0.799,0.078,1.193,0.231c0.175,0.067,0.374,0.027,0.506-0.107
				c0.133-0.135,0.174-0.334,0.101-0.509c-0.26-0.63-0.391-1.289-0.391-1.965c0-2.849,2.319-5.168,5.169-5.168
				c0.529,0,1.051,0.081,1.557,0.237c0.195,0.063,0.408-0.008,0.526-0.178c0.134-0.192,0.286-0.367,0.435-0.548H48.36
				c0.292-0.354,0.602-0.691,0.939-0.993l0.116-1.287c-0.359,0.263-0.701,0.546-1.021,0.859l-0.001,0.003
				c-0.372,0.359-0.727,0.735-1.038,1.156c-0.495-0.127-1.001-0.19-1.512-0.19c-1.157,0-2.235,0.33-3.158,0.891l-0.001-5.484
				c0-0.002,0-0.193,0.098-0.295c0.063-0.067,0.172-0.101,0.327-0.101l0.911-0.002c0.171,0.011,0.428-0.055,0.64-0.256
				c0.268-0.253,0.401-0.652,0.401-1.185v-4.979h-0.905v1.11h-1.586v-1.139h-0.905v1.139h-1.811v-1.139H38.95v1.139H37.14v-1.139
				h-0.905v1.139h-1.669V13.599l1.006-0.002l-6.094-6.586l-6.264,6.604l1.028-0.002v11.394h-1.586v-1.139H21.75v1.139H19.94v-1.139
				h-0.905v1.139h-1.811v-1.139h-0.905v1.139H14.65v-1.153h-0.905v3.936h-0.003v1.043c0,0.532,0.134,0.932,0.401,1.185
				c0.196,0.188,0.428,0.253,0.598,0.255c0.005,0,0.012,0.003,0.016,0.003c0.002,0,0.005,0,0.007,0v-0.002c0.006,0,0.014,0,0.02,0
				h0.004c-0.007,0.002-0.015,0.002-0.023,0.002l0,0l0.023-0.002l0.907,0.002c0.156,0,0.265,0.034,0.328,0.101
				c0.004,0.005,0.006,0.011,0.011,0.016c0.028,0.035,0.047,0.078,0.06,0.122c0.01,0.032,0.017,0.062,0.02,0.088
				c0.002,0.021,0.005,0.042,0.005,0.058c0,0.002,0.001,0.011,0.001,0.011v0.335l-0.047,4.6c-0.59-0.191-1.218-0.297-1.871-0.297
				c-0.51,0-1.018,0.063-1.512,0.188c-0.284-0.376-0.602-0.725-0.934-1.056v0.002c-0.295-0.295-0.608-0.569-0.936-0.822v1.221
				h-0.003c0.312,0.282,0.598,0.596,0.868,0.923c0,0,0,0,0.001,0c0.147,0.18,0.296,0.352,0.431,0.542
				c0.118,0.17,0.331,0.241,0.526,0.178c0.506-0.156,1.029-0.237,1.559-0.237c1.315,0,2.514,0.5,3.428,1.313
				c0.228,0.214,0.437,0.444,0.642,0.683c0.684,0.877,1.098,1.975,1.098,3.172c0,0.676-0.132,1.337-0.392,1.965
				c-0.072,0.177-0.032,0.376,0.1,0.511c0.132,0.134,0.332,0.175,0.506,0.107c0.395-0.155,0.796-0.233,1.194-0.233
				c1.813,0,3.288,1.473,3.288,3.287c0,1.815-1.476,3.29-3.288,3.29h-5.639h-0.938H5.744H5.558H4.805
				c-0.031,0-0.06-0.005-0.091-0.005v-0.004c-0.035,0.002-0.064,0.008-0.097,0.008H3.864H3.676h-8.454h-0.94h-5.636
				c-1.813,0-3.29-1.475-3.29-3.291c0-1.813,1.476-3.285,3.29-3.285c0.397,0,0.798,0.078,1.192,0.231
				c0.175,0.067,0.374,0.027,0.507-0.107c0.132-0.135,0.173-0.334,0.1-0.509c-0.259-0.63-0.391-1.289-0.391-1.965
				c0-2.849,2.32-5.168,5.169-5.168c0.53,0,1.051,0.081,1.557,0.237c0.195,0.063,0.408-0.008,0.527-0.178
				c0.133-0.192,0.285-0.367,0.434-0.548h-0.001c0.292-0.354,0.602-0.691,0.939-0.993l0.116-1.287
				c-0.359,0.263-0.701,0.546-1.021,0.859l-0.001,0.003c-0.372,0.359-0.727,0.735-1.039,1.156c-0.494-0.127-1.001-0.19-1.512-0.19
				c-3.367,0-6.106,2.74-6.106,6.108c0,0.495,0.06,0.985,0.178,1.461c-0.213-0.036-0.432-0.054-0.647-0.054
				c-2.33,0-4.227,1.897-4.227,4.226c0,2.333,1.896,4.229,4.227,4.229h5.636h0.939H3.68h0.188H4.62c0.031,0,0.06-0.003,0.091-0.003
				v0.001c0.033,0,0.062,0.004,0.094,0.004h0.753h0.186H14.2h0.939h5.636c2.331,0,4.227-1.896,4.227-4.228
				c0.001-2.328-1.896-4.229-4.226-4.229c-0.216,0-0.434,0.02-0.65,0.055c0.12-0.477,0.181-0.967,0.181-1.462
				c0-0.847-0.174-1.653-0.486-2.385c0.368-0.082,0.743-0.139,1.123-0.139c2.845,0,5.168,2.318,5.168,5.169
				c0,0.675-0.132,1.336-0.392,1.964c-0.072,0.177-0.032,0.377,0.1,0.511c0.132,0.135,0.332,0.176,0.506,0.108
				c0.395-0.156,0.796-0.233,1.194-0.233c1.813,0,3.288,1.473,3.288,3.287c0,0.092-0.02,0.177-0.027,0.267h0.935
				c0.007-0.09,0.028-0.175,0.028-0.267c0-1.903-1.271-3.499-3.004-4.028c-0.182-0.932,0.014-1.931,0.665-2.719
				c1.153-1.399,3.229-1.597,4.627-0.444c0.307,0.251,0.567,0.567,0.773,0.938c0.093,0.162,0.271,0.258,0.46,0.238
				c0.188-0.02,0.347-0.148,0.401-0.329c0.2-0.652,0.519-1.244,0.948-1.764c0.874-1.063,2.089-1.673,3.358-1.827
				c-0.148,0.527-0.234,1.079-0.234,1.653c0,0.495,0.06,0.985,0.179,1.461c-0.213-0.036-0.433-0.054-0.647-0.054
				c-2.33,0-4.227,1.897-4.227,4.226c0,2.333,1.896,4.229,4.227,4.229h5.636h0.939h8.454h0.188h0.754
				c0.03,0,0.059-0.003,0.091-0.003v0.001c0.032,0,0.062,0.004,0.094,0.004h0.753h0.186h8.456h0.938h5.637
				c2.33,0,4.227-1.896,4.227-4.228C75.622,44.725,73.726,42.823,71.395,42.823z M29.47,8.335l4.033,4.36l-8.18,0.01L29.47,8.335z
				 M33.66,13.601v15.232c0,0.207,0.026,0.387,0.067,0.552H25.09c0.034-0.154,0.057-0.32,0.057-0.509V13.613L33.66,13.601z
				 M19.432,38.144c-0.241-0.32-0.509-0.615-0.786-0.9c-0.48-0.511-1.043-0.938-1.672-1.261l0.053-5.253
				c0.004-0.058,0.027-0.582-0.341-0.974c-0.166-0.175-0.471-0.385-0.989-0.385l0,0c-0.001,0-0.001,0-0.003,0l-0.753-0.009
				c-0.005-0.007-0.266-0.05-0.287-0.484c0-0.016-0.003-0.027-0.003-0.044v-2.921h9.592v2.963c0,0.408-0.108,0.53-0.113,0.538
				h-0.934c-0.518,0-0.823,0.21-0.988,0.385c-0.368,0.393-0.345,0.916-0.341,0.946l0.007,7.291c-0.304-0.048-0.613-0.08-0.929-0.08
				C20.433,37.954,19.926,38.018,19.432,38.144z M35.892,40.993c-0.315,0.382-0.58,0.798-0.792,1.24
				c-0.142-0.163-0.299-0.315-0.465-0.453c-1.799-1.481-4.469-1.224-5.95,0.574c-0.752,0.913-1.042,2.048-0.923,3.139
				c-0.081-0.003-0.161-0.024-0.244-0.024c-0.216,0-0.434,0.02-0.65,0.055c0.12-0.478,0.181-0.967,0.181-1.462
				c0-2.729-1.8-5.043-4.271-5.824l-0.009-7.523c0-0.002,0-0.191,0.098-0.295c0.063-0.067,0.172-0.101,0.328-0.101l0.911-0.002
				c0.028,0.002,0.06-0.001,0.092-0.005v0.007h11.627v-0.009c0.046,0.016,0.086,0.035,0.113,0.063c0.088,0.09,0.102,0.251,0.1,0.329
				l0.019,7.939l0.905-0.002l-0.02-7.909c0.003-0.058,0.026-0.582-0.341-0.972c-0.14-0.15-0.391-0.316-0.776-0.366v-0.007h-0.065
				c-0.049-0.003-0.092-0.014-0.146-0.014L34.7,29.372c-0.026-0.009-0.135-0.131-0.135-0.54v-2.921h9.592v2.963
				c0,0.408-0.107,0.53-0.113,0.538H43.11c-0.518,0-0.822,0.21-0.988,0.387c-0.366,0.391-0.344,0.914-0.341,0.942v6.128
				c-0.598,0.534-1.088,1.183-1.439,1.913C38.671,38.855,37.036,39.604,35.892,40.993z"/>
			<path fill="#FFFFFF" d="M55.33,32.496c0.032,0,0.062-0.005,0.094-0.005c2.246,0,4.382,0.86,6.013,2.35V33.62
				c-1.706-1.316-3.81-2.07-6.013-2.07c-0.032,0.002-0.062,0.008-0.094,0.008s-0.061-0.006-0.094-0.006
				c-2.121,0-4.147,0.7-5.819,1.928L49.3,34.767c1.619-1.448,3.729-2.275,5.937-2.275C55.27,32.491,55.298,32.496,55.33,32.496z"/>
			<path fill="#FFFFFF" d="M4.71,32.496c0.033,0,0.062-0.005,0.094-0.005c2.246,0,4.382,0.86,6.012,2.35V33.62
				c-1.705-1.316-3.809-2.07-6.012-2.07c-0.032,0.002-0.061,0.008-0.094,0.008c-0.032,0-0.061-0.006-0.094-0.006
				c-2.121,0-4.148,0.7-5.82,1.928l-0.117,1.287c1.619-1.448,3.728-2.275,5.937-2.275C4.649,32.491,4.679,32.496,4.71,32.496z"/>
			<rect x="30.746" y="15.363" fill="#FFFFFF" width="0.905" height="1.216"/>
			<rect x="27.239" y="15.477" fill="#FFFFFF" width="0.905" height="1.216"/>
			<rect x="27.265" y="18.953" fill="#FFFFFF" width="0.909" height="1.278"/>
			<rect x="30.773" y="18.839" fill="#FFFFFF" width="0.908" height="1.278"/>
			<rect x="30.774" y="22.227" fill="#FFFFFF" width="0.905" height="1.216"/>
			<rect x="27.267" y="22.34" fill="#FFFFFF" width="0.905" height="1.216"/>
			<rect x="27.293" y="25.818" fill="#FFFFFF" width="0.909" height="1.278"/>
			<rect x="30.802" y="25.705" fill="#FFFFFF" width="0.908" height="1.278"/>
			<rect x="38.937" y="31.345" fill="#FFFFFF" width="0.908" height="1.278"/>
			<rect x="38.937" y="27.724" fill="#FFFFFF" width="0.908" height="1.278"/>
			<rect x="19.021" y="31.345" fill="#FFFFFF" width="0.909" height="1.278"/>
			<rect x="19.021" y="27.724" fill="#FFFFFF" width="0.909" height="1.278"/>
			<path fill="#FFFFFF" d="M26.399,34.189v3.169l2.802,0.67v-6.507C26.765,31.646,26.399,34.189,26.399,34.189z"/>
			<path fill="#FFFFFF" d="M29.633,31.525v6.514l2.952-0.681l-0.075-3.244C32.51,34.114,32.29,31.676,29.633,31.525z"/>
		</g>
	</g>
	<circle fill="none" stroke="#FFFFFF" stroke-miterlimit="10" cx="30.022" cy="30.051" r="28.667"/>
</g>
</svg>
