<?xml version="1.0" encoding="utf-8"?>
<!-- Generator: Adobe Illustrator 16.0.0, SVG Export Plug-In . SVG Version: 6.00 Build 0)  -->
<!DOCTYPE svg PUBLIC "-//W3C//DTD SVG 1.1//EN" "http://www.w3.org/Graphics/SVG/1.1/DTD/svg11.dtd">
<svg version="1.1" id="Layer_1" xmlns="http://www.w3.org/2000/svg" xmlns:xlink="http://www.w3.org/1999/xlink" x="0px" y="0px"
	 width="13.217px" height="9.499px" viewBox="0 0 13.217 9.499" enable-background="new 0 0 13.217 9.499" xml:space="preserve">
<g>
	<path fill="#FFFFFF" d="M1.333,2.667C0.597,2.667,0,2.07,0,1.333l0,0C0,0.597,0.597,0,1.333,0h10.5
		c0.736,0,1.334,0.597,1.334,1.333l0,0c0,0.736-0.598,1.333-1.334,1.333H1.333z"/>
	<path fill="#FFFFFF" d="M1.333,9.5C0.597,9.5,0,8.904,0,8.167l0,0c0-0.736,0.597-1.334,1.333-1.334h10.5
		c0.736,0,1.334,0.598,1.334,1.334l0,0c0,0.736-0.598,1.332-1.334,1.332H1.333z"/>
</g>
</svg>
