<?xml version="1.0" encoding="utf-8"?>
<!-- Generator: Adobe Illustrator 16.0.0, SVG Export Plug-In . SVG Version: 6.00 Build 0)  -->
<!DOCTYPE svg PUBLIC "-//W3C//DTD SVG 1.1//EN" "http://www.w3.org/Graphics/SVG/1.1/DTD/svg11.dtd">
<svg version="1.1" id="Layer_1" xmlns="http://www.w3.org/2000/svg" xmlns:xlink="http://www.w3.org/1999/xlink" x="0px" y="0px"
	 width="60px" height="60px" viewBox="0 0 60 60" enable-background="new 0 0 60 60" xml:space="preserve">
<g>
	<path fill="#FFFFFF" d="M30.164,0.236C13.682,0.236,0.32,13.597,0.32,30.081c0,16.473,13.361,29.835,29.844,29.835
		C46.638,59.916,60,46.554,60,30.081C60,13.597,46.638,0.236,30.164,0.236 M44.681,42.694c0,0.882-0.433,1.816-1.305,1.816h-7.341
		V33.508h3.733l0.565-4.716h-4.299v-2.815c0-1.257,0.337-1.901,2.146-1.901h2.568v-4.111c-0.784-0.056-2.004-0.173-3.599-0.173
		c-3.316,0-5.831,2.028-5.831,5.753v3.247h-3.931v4.716h3.931v11.003H17.707c-0.88,0-1.321-0.935-1.321-1.816v-25.67
		c0-0.88,0.441-1.594,1.321-1.594h25.669c0.872,0,1.305,0.714,1.305,1.594V42.694z"/>
</g>
</svg>
