<?xml version="1.0" encoding="utf-8"?>
<!-- Generator: Adobe Illustrator 16.0.0, SVG Export Plug-In . SVG Version: 6.00 Build 0)  -->
<!DOCTYPE svg PUBLIC "-//W3C//DTD SVG 1.1//EN" "http://www.w3.org/Graphics/SVG/1.1/DTD/svg11.dtd">
<svg version="1.1" id="Layer_1" xmlns="http://www.w3.org/2000/svg" xmlns:xlink="http://www.w3.org/1999/xlink" x="0px" y="0px"
	 width="60px" height="60px" viewBox="0 0 60 60" enable-background="new 0 0 60 60" xml:space="preserve">
<g>
	<path fill="#FFFFFF" d="M29.969,0.071C13.417,0.071,0,13.488,0,30.04C0,46.583,13.417,60,29.969,60
		C46.513,60,59.93,46.583,59.93,30.04C59.93,13.488,46.513,0.071,29.969,0.071 M24.151,40.554c-5.587,0-10.118-4.657-10.118-10.253
		c0-5.597,4.531-10.202,10.118-10.202c2.621,0,5.012,0.977,6.805,2.61c-2.116,2.005-2.045,2.107-2.881,2.944
		c-1.034-0.869-2.171-1.497-3.923-1.497c-3.322,0-5.911,2.697-5.911,6.02c0,3.324,2.589,6.243,5.911,6.243
		c3.276,0,4.61-1.438,5.47-3.807H24.27v-3.946h9.598C34.538,33.402,32.502,40.554,24.151,40.554 M45.581,31.034h-3.158v3.946h-2.366
		v-3.946h-3.947v-2.368h3.947v-3.157h2.366v3.157h3.158V31.034z"/>
</g>
</svg>
