<?xml version="1.0" encoding="utf-8"?>
<!-- Generator: Adobe Illustrator 16.0.0, SVG Export Plug-In . SVG Version: 6.00 Build 0)  -->
<!DOCTYPE svg PUBLIC "-//W3C//DTD SVG 1.1//EN" "http://www.w3.org/Graphics/SVG/1.1/DTD/svg11.dtd">
<svg version="1.1" id="Layer_2_1_" xmlns="http://www.w3.org/2000/svg" xmlns:xlink="http://www.w3.org/1999/xlink" x="0px" y="0px"
	 width="60px" height="60px" viewBox="0 0 60 60" enable-background="new 0 0 60 60" xml:space="preserve">
<g>
	<g>
		<defs>
			<circle id="SVGID_1_" cx="29.917" cy="29.919" r="28.917"/>
		</defs>
		<clipPath id="SVGID_2_">
			<use xlink:href="#SVGID_1_"  overflow="visible"/>
		</clipPath>
		<g clip-path="url(#SVGID_2_)">
			<g>
				<path fill="#FFFFFF" d="M9.728,19.912c-1.888,0.845-2.736,3.066-1.892,4.953c0.329,0.739,0.889,1.341,1.631,1.75
					c1.333,0.642,1.581,1.196,1.713,1.493l0.943,2.107c0.065,0.145,0.235,0.21,0.38,0.145l0.264-0.118l0.117,0.263
					c0.196,0.435,0.708,0.631,1.144,0.435l1.053-0.469c0.436-0.195,0.631-0.708,0.436-1.143l-0.118-0.264l0.265-0.117
					c0.143-0.065,0.21-0.236,0.145-0.381l-0.943-2.106c-0.133-0.298-0.381-0.851,0.035-2.289c0.186-0.81,0.108-1.629-0.221-2.367
					C13.836,19.917,11.615,19.069,9.728,19.912z M14.694,27.485l-2.633,1.178l-0.235-0.527l2.632-1.177L14.694,27.485z
					 M14.992,29.563c0.065,0.145-0.001,0.317-0.146,0.381l-1.053,0.471c-0.145,0.065-0.316-0.001-0.381-0.146l-0.118-0.262
					l1.579-0.707L14.992,29.563z M15.165,28.538l-2.633,1.178l-0.235-0.527l2.633-1.177L15.165,28.538z M14.342,24.026
					c-0.37,1.283-0.25,1.992-0.111,2.401l-2.65,1.185c-0.209-0.377-0.657-0.937-1.849-1.511c-0.616-0.34-1.09-0.85-1.369-1.473
					c-0.715-1.598,0.004-3.477,1.601-4.19c1.596-0.714,3.476,0.004,4.19,1.601C14.433,22.663,14.496,23.355,14.342,24.026z"/>
				<path fill="#FFFFFF" d="M12.504,22.588l-2.633,1.177C9.75,23.82,9.68,23.952,9.706,24.082c0.024,0.132,0.138,0.229,0.269,0.235
					c0.392,0.017,1.353,1.294,1.906,2.53l0.526-0.236c-0.253-0.565-0.996-1.948-1.75-2.566l1.529-0.684
					c-0.043,0.975,0.494,2.449,0.748,3.016l0.527-0.235c-0.553-1.236-0.865-2.804-0.618-3.106c0.086-0.104,0.089-0.251,0.006-0.358
					C12.771,22.57,12.626,22.533,12.504,22.588z"/>
			</g>
			<g>
				<path fill="#FFFFFF" d="M33.25,11.419c-2.067,0.021-3.732,1.719-3.711,3.786c0.008,0.808,0.28,1.584,0.798,2.255
					c0.967,1.121,0.972,1.726,0.975,2.053l0.024,2.307c0.001,0.16,0.131,0.288,0.29,0.286l0.289-0.004l0.002,0.289
					c0.006,0.478,0.397,0.862,0.874,0.856l1.154-0.011c0.477-0.005,0.861-0.396,0.855-0.873l-0.002-0.288l0.289-0.003
					c0.158-0.001,0.287-0.132,0.286-0.291l-0.023-2.308c-0.004-0.327-0.01-0.932,0.943-2.084c0.495-0.669,0.752-1.45,0.744-2.258
					C37.018,13.063,35.317,11.398,33.25,11.419z M34.78,20.343l-2.883,0.028l-0.006-0.577l2.884-0.029L34.78,20.343z M34.225,22.369
					c0.001,0.158-0.126,0.289-0.286,0.29l-1.151,0.012c-0.16,0.001-0.293-0.127-0.295-0.286l-0.002-0.289l1.731-0.017L34.225,22.369
					z M34.793,21.498l-2.884,0.028l-0.005-0.576l2.883-0.029L34.793,21.498z M35.838,17.031c-0.851,1.03-1.023,1.728-1.059,2.159
					l-2.903,0.028c-0.043-0.43-0.228-1.122-1.091-2.124c-0.432-0.559-0.661-1.214-0.669-1.896c-0.018-1.75,1.393-3.187,3.142-3.205
					c1.748-0.017,3.185,1.392,3.204,3.142C36.467,15.817,36.248,16.478,35.838,17.031z"/>
				<path fill="#FFFFFF" d="M34.728,14.979l-2.884,0.029c-0.133,0.001-0.25,0.095-0.277,0.226c-0.031,0.13,0.034,0.264,0.152,0.322
					c0.353,0.172,0.725,1.727,0.738,3.081l0.576-0.006c-0.006-0.619-0.134-2.184-0.579-3.05l1.676-0.017
					c-0.429,0.875-0.524,2.442-0.519,3.063l0.577-0.005c-0.014-1.355,0.326-2.917,0.675-3.095c0.119-0.062,0.181-0.196,0.148-0.326
					C34.979,15.069,34.861,14.978,34.728,14.979z"/>
			</g>
			<path fill="#FFFFFF" d="M42.673,41.682c0,0.716-0.141,1.415-0.412,2.078c-0.077,0.186-0.034,0.396,0.104,0.539
				c0.016,0.016,0.038,0.016,0.054,0.029c-0.015-0.013-0.037-0.014-0.051-0.027c-0.14-0.143-0.183-0.354-0.105-0.539
				c0.273-0.663,0.413-1.362,0.413-2.078c0-1.884-0.959-3.549-2.414-4.531C41.715,38.135,42.673,39.8,42.673,41.682z"/>
			<path fill="#FFFFFF" d="M47.643,47.642c0,1.92-1.563,3.479-3.479,3.479h-5.961h-0.992H28.27h-0.199h-0.796
				c-0.034,0-0.064-0.005-0.097-0.005v0.002c0.034,0,0.065,0.005,0.098,0.005h0.795h0.198h8.941h0.992h5.964
				c1.916,0,3.477-1.559,3.477-3.479c0-1.199-0.611-2.258-1.537-2.883C47.032,45.386,47.643,46.444,47.643,47.642z"/>
			<path fill="#FFFFFF" d="M45.52,44.441c0.001,0,0.001,0.002,0.003,0.003C45.521,44.443,45.521,44.441,45.52,44.441z"/>
			<path fill="#FFFFFF" d="M18.946,36.494c-0.052,0.001-0.104-0.008-0.157-0.023c-0.532-0.166-1.084-0.252-1.645-0.252h-0.001
				c0.56,0,1.111,0.086,1.645,0.252C18.84,36.486,18.894,36.495,18.946,36.494z"/>
			<path fill="#FFFFFF" d="M11.734,44.436c-0.093,0.019-0.191,0.013-0.283-0.022c-0.417-0.164-0.842-0.246-1.263-0.246c0,0,0,0,0,0
				c0.421,0,0.845,0.082,1.262,0.246C11.542,44.448,11.641,44.454,11.734,44.436z"/>
			<path fill="#FFFFFF" d="M27.078,51.12c0.005,0,0.012,0,0.016,0c-0.006,0-0.013,0-0.019,0H27.078z"/>
			<path fill="#FFFFFF" d="M45.168,21.122l-0.882-2.651c-0.009-0.027-0.01-0.054-0.015-0.081c0.005,0.028,0.006,0.056,0.015,0.083
				L45.168,21.122z"/>
			<path fill="#FFFFFF" d="M25.735,10.224c2.333-2.335,4.904-3.332,8.59-3.332c5.039,0,7.845,2.908,9.105,6.438
				c-1.26-3.531-4.066-6.44-9.106-6.44c-3.686,0-6.257,0.997-8.591,3.332c-2.004,2.005-2.86,4.924-2.344,8.012
				c0.044,0.259,0.107,0.512,0.171,0.764c-0.064-0.251-0.127-0.504-0.17-0.762C22.874,15.147,23.732,12.228,25.735,10.224z"/>
			<path fill="#FFFFFF" d="M25.879,26.311c0-0.929-0.232-1.816-0.561-2.71c0.328,0.893,0.561,1.78,0.561,2.707l-0.462,5.08
				c0,0,0,0,0,0L25.879,26.311z"/>
			<path fill="#FFFFFF" d="M32.964,34.172c-0.667-0.507-1.397-0.919-2.169-1.232h-0.001C31.566,33.253,32.297,33.665,32.964,34.172z
				"/>
			<path fill="#FFFFFF" d="M27.177,32.249c0.034,0,0.065-0.004,0.099-0.003c1.223,0,2.413,0.245,3.519,0.693h0.001
				c-1.105-0.448-2.296-0.694-3.52-0.694C27.242,32.245,27.21,32.249,27.177,32.249z"/>
			<path fill="#FFFFFF" d="M44.165,43.173c-0.228,0-0.459,0.02-0.687,0.058c0.126-0.505,0.19-1.022,0.19-1.547
				c0-3.014-2.08-5.545-4.876-6.253v0.544c-0.25-0.249-0.521-0.475-0.794-0.695c-0.259-0.031-0.521-0.053-0.787-0.053
				c-0.54,0-1.077,0.067-1.599,0.201c-0.3-0.401-0.636-0.768-0.986-1.117v1.213c0,0.073-0.048,0.124-0.074,0.184
				c0.154,0.19,0.313,0.375,0.455,0.576c0.031,0.044,0.069,0.082,0.11,0.112c0.125,0.093,0.289,0.123,0.445,0.073
				c0.532-0.166,1.085-0.251,1.646-0.251c1.129,0,2.181,0.344,3.053,0.935c1.455,0.982,2.414,2.647,2.414,4.531
				c0,0.716-0.14,1.415-0.413,2.078c-0.077,0.186-0.034,0.396,0.105,0.539c0.014,0.014,0.036,0.015,0.051,0.027
				c0.139,0.107,0.318,0.146,0.483,0.085c0.416-0.164,0.841-0.246,1.262-0.246c0.48,0,0.938,0.098,1.355,0.274
				c0.001,0,0.001,0.002,0.003,0.003c0.205,0.087,0.401,0.193,0.584,0.316c0.926,0.625,1.537,1.684,1.537,2.883
				c0,1.92-1.561,3.479-3.477,3.479h-5.964h-0.992H28.27h-0.198h-0.795c-0.033,0-0.064-0.005-0.098-0.005v0.992c0,0,0,0,0,0v0.002
				c0.034,0,0.065,0.004,0.099,0.004h0.795h0.198h8.942h0.993h5.96c2.465,0,4.47-2.005,4.47-4.472
				C48.635,45.18,46.63,43.173,44.165,43.173z"/>
			<path fill="#FFFFFF" d="M35.564,36.471c0.534-0.166,1.087-0.252,1.647-0.252c1.128,0,2.178,0.345,3.05,0.934
				c-0.872-0.591-1.924-0.935-3.053-0.935c-0.561,0-1.113,0.085-1.646,0.251c-0.156,0.05-0.32,0.02-0.445-0.073
				C35.243,36.49,35.409,36.52,35.564,36.471z"/>
			<path fill="#FFFFFF" d="M45.522,44.444c0.206,0.087,0.401,0.193,0.584,0.316C45.924,44.638,45.728,44.531,45.522,44.444z"/>
			<path fill="#FFFFFF" d="M42.903,44.414c0.418-0.164,0.842-0.246,1.264-0.246c0.479,0,0.936,0.097,1.353,0.273
				c-0.418-0.177-0.875-0.274-1.355-0.274C43.743,44.167,43.318,44.249,42.903,44.414c-0.166,0.061-0.346,0.021-0.484-0.086
				C42.558,44.438,42.737,44.477,42.903,44.414z"/>
			<path fill="#FFFFFF" d="M33.092,33.056c-0.541-0.09-1.093-0.137-1.649-0.137c-0.033,0-0.064,0.004-0.099,0.004
				c-0.035,0-0.065-0.004-0.099-0.001c-0.151,0-0.3,0.011-0.45,0.018c0.771,0.313,1.502,0.726,2.169,1.232
				c0.231,0.175,0.455,0.362,0.671,0.558v-1.288C33.458,33.305,33.275,33.18,33.092,33.056z"/>
			<path fill="#FFFFFF" d="M27.177,31.258v0.991c0.034,0,0.065-0.004,0.099-0.004c1.224,0,2.414,0.246,3.52,0.694
				c0.15-0.007,0.299-0.018,0.45-0.018c0.033-0.003,0.063,0.001,0.099,0.001c0.034,0,0.065-0.004,0.099-0.004
				c0.557,0,1.108,0.047,1.649,0.137c-1.7-1.15-3.712-1.804-5.816-1.804C27.242,31.252,27.21,31.258,27.177,31.258z"/>
			<rect x="25.37" y="31.386" fill="#FFFFFF" width="0" height="1.029"/>
			<path fill="#FFFFFF" d="M24.4,31.616c-1.251,0.341-2.431,0.906-3.476,1.674l-0.123,1.362c1.012-0.908,2.21-1.577,3.503-1.979
				L24.4,31.616z"/>
			<path fill="#FFFFFF" d="M27.078,32.245c0.034,0,0.065,0.004,0.099,0.004v-0.991c-0.034,0-0.065-0.006-0.099-0.006
				c-0.562,0-1.116,0.047-1.661,0.136l-0.093,1.024C25.898,32.304,26.484,32.245,27.078,32.245z"/>
			<rect x="25.323" y="32.412" fill="#FFFFFF" width="0" height="0.001"/>
			<path fill="#FFFFFF" d="M24.304,32.674c-1.293,0.401-2.491,1.07-3.503,1.979C21.814,33.744,23.011,33.075,24.304,32.674
				L24.304,32.674z"/>
			<path fill="#FFFFFF" d="M25.324,32.412L25.324,32.412c0.574-0.108,1.16-0.167,1.754-0.167
				C26.484,32.245,25.898,32.304,25.324,32.412z"/>
			<rect x="19.804" y="35.702" fill="#FFFFFF" width="0.002" height="0.003"/>
			<path fill="#FFFFFF" d="M27.178,51.117v-0.002c0,0,0,0,0,0c-0.001,0-0.003,0-0.004,0v0.001c-0.027,0-0.053,0.003-0.08,0.004
				c-0.004,0-0.011,0-0.016,0h-0.002h-0.793h-0.003h-0.195h-0.002h-8.938h-0.002h-0.992h-0.001h-5.959h-0.002
				c-1.916,0-3.478-1.559-3.478-3.478c0-1.917,1.562-3.476,3.478-3.476c0.001,0,0.001,0,0.001,0c0,0,0,0,0,0
				c0.421,0,0.846,0.082,1.263,0.246c0.092,0.035,0.19,0.041,0.283,0.022c0.093-0.02,0.181-0.065,0.25-0.136
				c0.139-0.143,0.182-0.354,0.105-0.538c-0.272-0.665-0.413-1.363-0.413-2.078c0-3.014,2.454-5.465,5.465-5.465c0,0,0,0,0.001,0
				h0.001c0.561,0,1.112,0.086,1.645,0.252c0.053,0.016,0.105,0.024,0.157,0.023c0.156-0.002,0.306-0.077,0.398-0.213
				c0.142-0.203,0.304-0.387,0.461-0.577c-0.033-0.074-0.083-0.143-0.077-0.225l0.116-1.279c-0.394,0.382-0.771,0.779-1.103,1.226
				c-0.521-0.134-1.058-0.201-1.597-0.201c-3.56,0-6.458,2.897-6.458,6.459c0,0.524,0.064,1.042,0.189,1.546
				c-0.227-0.038-0.458-0.057-0.685-0.057c-2.465,0-4.47,2.005-4.47,4.469c0,2.466,2.005,4.473,4.47,4.473h5.959h0.994h8.941h0.199
				h0.795c0.034,0,0.065-0.005,0.098-0.005L27.178,51.117C27.178,51.117,27.178,51.117,27.178,51.117z"/>
			<path fill="#FFFFFF" d="M19.344,36.281c-0.093,0.136-0.243,0.211-0.398,0.213c0.157-0.002,0.307-0.077,0.4-0.213
				c0.142-0.203,0.302-0.387,0.459-0.576v-0.001C19.648,35.895,19.486,36.078,19.344,36.281z"/>
			<path fill="#FFFFFF" d="M27.174,51.116L27.174,51.116c-0.028,0-0.053,0.003-0.08,0.004
				C27.121,51.119,27.146,51.116,27.174,51.116z"/>
			<path fill="#FFFFFF" d="M6.71,47.643c0-1.917,1.562-3.475,3.478-3.476c0,0,0,0-0.001,0c-1.916,0-3.478,1.559-3.478,3.476
				c0,1.919,1.562,3.478,3.478,3.478h0.002C8.272,51.12,6.71,49.562,6.71,47.643z"/>
			<path fill="#FFFFFF" d="M11.986,44.3c0.14-0.143,0.183-0.354,0.105-0.538c-0.273-0.665-0.413-1.363-0.413-2.078
				c0-3.013,2.453-5.465,5.464-5.465c-0.001,0-0.001,0-0.001,0c-3.011,0-5.465,2.451-5.465,5.465c0,0.715,0.14,1.413,0.413,2.078
				c0.077,0.185,0.034,0.396-0.105,0.538c-0.07,0.07-0.157,0.116-0.25,0.136C11.828,44.416,11.917,44.371,11.986,44.3z"/>
			<polygon fill="#FFFFFF" points="27.178,51.115 27.178,51.115 27.178,51.115 			"/>
			<rect x="27.178" y="51.117" fill="#FFFFFF" width="0" height="0.992"/>
			<path fill="#FFFFFF" d="M25.879,26.308c0-0.927-0.232-1.814-0.561-2.707c-0.197-0.536-0.428-1.073-0.665-1.622
				c-0.413-0.959-0.828-1.948-1.093-2.982c-0.064-0.252-0.127-0.505-0.171-0.764c-0.516-3.088,0.34-6.007,2.344-8.012
				c2.334-2.334,4.906-3.332,8.591-3.332c5.04,0,7.847,2.909,9.106,6.44c0.574,1.605,0.828,3.339,0.828,4.987
				c0,0.025,0.009,0.049,0.013,0.074c0.005,0.027,0.006,0.054,0.015,0.081l0.882,2.651l0.886,2.658h-1.298
				c-0.272,0-0.498,0.221-0.498,0.497v3.477c0,1.031-0.359,1.986-2.979,1.986h-2.936c-0.273,0-0.542,0.223-0.542,0.498v4.869
				c0.069,0.054,0.131,0.117,0.198,0.173c0.271,0.034,0.535,0.086,0.794,0.151v-4.698h2.483c0.984,0,3.975,0,3.975-2.98v-2.98h1.489
				c0.161,0,0.311-0.077,0.403-0.206c0.093-0.13,0.119-0.296,0.069-0.449l-1.962-5.885c-0.03-7.497-4.312-12.335-10.927-12.335
				c-3.921,0-6.787,1.115-9.292,3.621c-2.235,2.235-3.187,5.471-2.623,8.877c0.243,1.436,0.794,2.725,1.333,3.975
				c0.59,1.367,1.145,2.657,1.145,3.892L24.4,31.616c0.334-0.091,0.672-0.172,1.017-0.229L25.879,26.308z"/>
			<path fill="#FFFFFF" d="M38.343,29.74h2.936c2.62,0,2.979-0.955,2.979-1.986v-3.477c0-0.275,0.226-0.497,0.498-0.497h1.298
				l-0.886-2.658l0.884,2.656h-1.297c-0.273,0-0.497,0.222-0.497,0.496v3.477c0,1.031-0.36,1.986-2.98,1.986h-2.935
				c-0.273,0-0.543,0.222-0.543,0.498v4.871c0,0,0,0,0.001,0.001v-4.869C37.801,29.962,38.069,29.74,38.343,29.74z"/>
			<path fill="#FFFFFF" d="M44.271,18.39c-0.004-0.024-0.013-0.049-0.013-0.074c0-1.648-0.254-3.382-0.828-4.987
				c0.573,1.605,0.827,3.338,0.827,4.984C44.258,18.34,44.268,18.365,44.271,18.39z"/>
			<path fill="#FFFFFF" d="M23.561,18.997c0.266,1.035,0.68,2.023,1.093,2.982c0.236,0.549,0.467,1.086,0.665,1.622
				c-0.197-0.537-0.428-1.074-0.667-1.624C24.241,21.018,23.826,20.029,23.561,18.997z"/>
			<path fill="#FFFFFF" d="M38.793,35.975v-0.544c-0.259-0.065-0.523-0.117-0.794-0.151C38.272,35.5,38.543,35.726,38.793,35.975z"
				/>
			<path fill="#FFFFFF" d="M25.323,32.412l0.094-1.024c-0.344,0.057-0.683,0.138-1.017,0.229l-0.096,1.058
				C24.639,32.57,24.977,32.479,25.323,32.412z"/>
			<path fill="#FFFFFF" d="M24.304,32.674L24.304,32.674c0.334-0.104,0.672-0.194,1.019-0.262l0,0
				C24.977,32.479,24.639,32.57,24.304,32.674z"/>
			<path fill="#FFFFFF" d="M34.627,34.311c-0.312-0.313-0.645-0.601-0.991-0.869v1.288h-0.001c0.328,0.302,0.631,0.63,0.918,0.978
				c0.026-0.061,0.074-0.11,0.074-0.184V34.311z"/>
			<path fill="#FFFFFF" d="M34.553,35.707c0.026-0.06,0.074-0.11,0.074-0.184C34.627,35.597,34.579,35.646,34.553,35.707z"/>
			<path fill="#FFFFFF" d="M19.73,35.479c-0.009,0.081,0.043,0.149,0.075,0.224c0.309-0.374,0.636-0.731,0.995-1.05l0.124-1.362
				c-0.379,0.278-0.739,0.579-1.079,0.908V34.2c0.001-0.002,0.001-0.002,0.002-0.004L19.73,35.479z"/>
			<path fill="#FFFFFF" d="M19.805,35.704c0-0.001,0-0.001,0-0.002c-0.032-0.074-0.083-0.143-0.075-0.224l0.117-1.282
				c-0.001,0.002-0.001,0.002-0.002,0.004l-0.116,1.279C19.722,35.562,19.772,35.63,19.805,35.704z"/>
		</g>
	</g>
	<circle fill="none" stroke="#FFFFFF" stroke-miterlimit="10" cx="29.917" cy="29.919" r="28.917"/>
</g>
</svg>
