<?xml version="1.0" encoding="utf-8"?>
<!-- Generator: Adobe Illustrator 16.0.0, SVG Export Plug-In . SVG Version: 6.00 Build 0)  -->
<!DOCTYPE svg PUBLIC "-//W3C//DTD SVG 1.1//EN" "http://www.w3.org/Graphics/SVG/1.1/DTD/svg11.dtd">
<svg version="1.1" id="Layer_1" xmlns="http://www.w3.org/2000/svg" xmlns:xlink="http://www.w3.org/1999/xlink" x="0px" y="0px"
	 width="803.869px" height="196.476px" viewBox="0 0 803.869 196.476" enable-background="new 0 0 803.869 196.476"
	 xml:space="preserve">
<polygon fill="#843FFE" points="1.416,152.654 1.409,152.65 1.413,152.655 "/>
<g>
	<path fill="#843FFE" d="M276.523,112.951h-17.355V29.567h17.355V112.951z"/>
	<g>
		<path d="M370.509,39.645v63.218h-3.98V48.989c0-0.776,0.047-1.595,0.136-2.46l-24.884,44.185c-0.416,0.771-1.01,1.16-1.787,1.16
			h-0.711c-0.781,0-1.375-0.388-1.791-1.16L311.939,46.44c0.089,0.894,0.136,1.74,0.136,2.549v53.875h-4.022V39.645h3.17
			c0.417,0,0.744,0.047,0.982,0.136c0.238,0.093,0.477,0.332,0.715,0.715l25.511,43.96c0.444,0.837,0.833,1.73,1.16,2.685
			c0.178-0.477,0.374-0.949,0.58-1.408c0.206-0.463,0.435-0.903,0.673-1.319l24.791-43.918c0.238-0.383,0.481-0.622,0.739-0.715
			c0.252-0.089,0.589-0.136,1.005-0.136H370.509z"/>
		<path d="M437.249,102.863h-3.531c-0.411,0-0.757-0.112-1.024-0.337c-0.267-0.224-0.477-0.51-0.627-0.87l-7.412-18.36h-31.048
			l-7.417,18.36c-0.122,0.327-0.328,0.608-0.627,0.851c-0.299,0.234-0.655,0.355-1.071,0.355h-3.489l25.866-63.218h4.513
			L437.249,102.863z M423.266,79.901L410.4,47.96c-0.444-1.047-0.879-2.296-1.295-3.755c-0.178,0.715-0.374,1.394-0.58,2.035
			c-0.21,0.641-0.435,1.229-0.668,1.763l-12.865,31.899H423.266z"/>
		<path d="M496.847,74.182v22.471c-3.157,2.23-6.519,3.947-10.097,5.14c-3.573,1.192-7.595,1.786-12.061,1.786
			c-5.004,0-9.502-0.767-13.492-2.301c-3.994-1.534-7.394-3.708-10.209-6.524c-2.815-2.811-4.971-6.215-6.477-10.209
			c-1.506-3.989-2.254-8.427-2.254-13.314c0-4.882,0.734-9.311,2.208-13.291c1.473-3.971,3.592-7.371,6.346-10.181
			c2.75-2.815,6.084-4.99,9.984-6.524c3.9-1.534,8.296-2.301,13.179-2.301c2.413,0,4.639,0.164,6.678,0.491
			c2.039,0.327,3.938,0.809,5.696,1.45c1.758,0.646,3.395,1.431,4.915,2.371c1.515,0.94,2.979,2.016,4.377,3.241l-1.249,1.959
			c-0.421,0.72-1.043,0.884-1.875,0.491c-0.449-0.178-1.089-0.589-1.927-1.249c-0.832-0.654-1.978-1.337-3.437-2.053
			c-1.459-0.716-3.269-1.356-5.43-1.922c-2.161-0.566-4.789-0.852-7.885-0.852c-4.106,0-7.824,0.66-11.149,1.969
			c-3.315,1.309-6.145,3.189-8.483,5.625c-2.338,2.446-4.139,5.42-5.406,8.938c-1.263,3.512-1.898,7.459-1.898,11.836
			c0,4.443,0.636,8.428,1.898,11.972c1.268,3.545,3.096,6.557,5.495,9.026c2.399,2.474,5.308,4.368,8.736,5.673
			c3.423,1.314,7.282,1.969,11.565,1.969c1.88,0,3.61-0.122,5.209-0.36c1.59-0.234,3.11-0.571,4.555-1.001
			c1.44-0.435,2.843-0.968,4.2-1.609c1.356-0.645,2.731-1.365,4.134-2.165V77.712h-12.107c-0.328,0-0.604-0.107-0.828-0.313
			c-0.225-0.206-0.337-0.449-0.337-0.716v-2.502H496.847z"/>
		<path d="M516.639,102.863h-4.607V39.645h4.607V102.863z"/>
		<path d="M584.094,39.645v63.218h-2.143c-0.393,0-0.711-0.065-0.963-0.201s-0.5-0.365-0.734-0.692l-41.061-54.861
			c0.094,0.893,0.136,1.744,0.136,2.549v53.206h-4.022V39.645h2.283c0.416,0,0.738,0.056,0.958,0.159
			c0.225,0.103,0.468,0.336,0.739,0.692l40.967,54.73c-0.094-0.898-0.136-1.745-0.136-2.549V39.645H584.094z"/>
	</g>
	<path fill="#843FFE" d="M221.492,193.152c-0.021-0.027-0.059-0.057-0.103-0.057c0.029,0.029,0.037,0.057,0.059,0.072
		L221.492,193.152z"/>
	<linearGradient id="SVGID_1_" gradientUnits="userSpaceOnUse" x1="0" y1="109.6836" x2="238.5513" y2="109.6836">
		<stop  offset="0" style="stop-color:#EC008C"/>
		<stop  offset="0.205" style="stop-color:#CA15B2"/>
		<stop  offset="0.4265" style="stop-color:#AC27D3"/>
		<stop  offset="0.6385" style="stop-color:#9634EB"/>
		<stop  offset="0.8347" style="stop-color:#893CF9"/>
		<stop  offset="1" style="stop-color:#843FFE"/>
	</linearGradient>
	<path fill="url(#SVGID_1_)" d="M232.123,29.131c-24.198,0.753-48.435-0.022-72.641,0.234c-19.829,0.205-39.637,1.162-59.467,1.417
		c-6.539,0.08-12.99-0.672-18.748-5.005c-5.641-4.238-11.982-3.354-18.237-0.285c-3.039,1.491-6.524,2.988-9.79,2.938
		c-7.942-0.088-15.884-1.023-23.805-1.761c-0.657-0.052-1.22-1.155-1.826-1.761c-0.73,0.081-1.462,0.168-2.192,0.263
		c-1.41,0.709-2.754,1.681-4.237,2.067c-6.255,1.615-12.589,2.93-18.807,4.654c-1.038,0.278-2.564,2.25-2.353,2.981
		c1.914,6.407,3.448,13.1,6.59,18.894c2.302,4.267,7.489,3.646,11.91,2.258c0.292-0.095,0.723,0.102,1.059,0.241
		c9.732,3.756,19.165,8.008,28.021,13.386c7.723,5.545,16.98,12.274,17.564,13.181c1.03,1.557,0.957-0.387,9.075,5.443l0.643-0.065
		c2.403,2.075,8.249,5.428,8.052,4.902c0.132,0.036,0.256,0.095,0.372,0.109c1.944,1.359,3.018,1.41,6.211,3.551
		c3.207,2.142,2.272,1.41,5.473,3.559c3.186,2.147,4.479,2.411,5.823,3.098c1.344,0.673,19.391,4.004,25.017,5.45
		c1.521,0.395,2.675,0.644,3.639,0.863c1.41,0.35,2.887,0.73,4.274,1.081c0.629,0.409,5.093,0.745,8.753,1.008
		c2.923,3.785,5.758,7.468,8.534,11.062c0,0,4.289,7.745,5.261,8.885c0.979,1.141,8.614,12.436,9.937,16.483
		c1.33,4.048,3.924,8.358,4.902,9.528c0.979,1.14,9.623,10.199,9.623,10.199s12.881,16.571,19.099,22.987
		c6.218,6.4,18.288,5.406,18.288,5.406c5.575,0.717,3.12-2.893,2.01-4.268c0.416,0.322,0.832,0.658,1.241,0.98
		c-9.081-18.076-18.456-36.007-27.099-54.288c-1.279-2.674-2.31-5.406-3.807-7.613l-0.826-1.666l-7.372-9.995
		c-0.774-1.622-2.207-3.186-3.565-4.822l-0.08-0.088c5.056-0.029,9.607-0.058,14.071-0.103l0.314,1.271l0.68,0.818
		c0,0,1.717,1.842,2.067,2.075c0.329,0.263,3.208,2.835,3.851,3.858c0.644,1.022,1.645,2.031,1.995,2.279
		c0.343,0.233,3.331,2.148,3.331,2.148s4.677,3.667,6.832,5.012c2.148,1.344,5.399,0.233,5.399,0.233
		c1.922-0.204,0.095-1.432,0.095-1.432l-12.494-14.993l-2.053-1.709c6.444-0.132,11.961-0.293,17.411-0.278
		c6.181,0.033,12.328-0.151,18.411-0.651V29.019C237.017,29.011,235.031,29.041,232.123,29.131z"/>
	<path fill="#843FFE" d="M802.648,37.383c-10.056,1.1-17.906-7.119-27.39-12.233c-1.499-3.583,6.626-4.958,19.043-19.792
		c0.626-0.749,0.416-1.833-0.421-2.52c-7.862-3.733-16.469-4.157-24.418,0.994c-7.512,4.866-14.292,10.864-21.525,16.176
		c-1.797,1.337-3.989,2.375-6.181,2.864c-9.031,2.068-18.105,3.814-27.15,5.816c-7.789,1.724-15.461,4.165-23.322,5.29
		c-6.43,0.884-13.064,0.54-19.581,0.285c-8.184-0.322-16.338-0.958-24.491-1.768c-3.858-0.38-5.48,0.065-14.817-1.038
		c-3.186,0.102-13.094-1.535-15.373-1.535c-11.31,0.034-11.458-0.382-16.47-0.405v84.135c15.289-1.257,30.168-4.573,44.103-11.9
		c31.563-16.586,62.558-34.114,88.539-59.139c1.578-1.527,3.391-2.82,5.057-4.252c4.004-3.435,8.475-4.618,13.794-3.632
		c9.907,1.827,19.845,3.712,29.898,4.764c6.751,0.702,13.678,0.022,20.516-0.044c0.437-0.114,1.377-0.421,1.405-0.739
		C803.914,38.15,803.644,37.525,802.648,37.383z"/>
</g>
</svg>
