<?xml version="1.0" encoding="utf-8"?>
<!-- Generator: Adobe Illustrator 16.0.0, SVG Export Plug-In . SVG Version: 6.00 Build 0)  -->
<!DOCTYPE svg PUBLIC "-//W3C//DTD SVG 1.1//EN" "http://www.w3.org/Graphics/SVG/1.1/DTD/svg11.dtd">
<svg version="1.1" id="Layer_1" xmlns="http://www.w3.org/2000/svg" xmlns:xlink="http://www.w3.org/1999/xlink" x="0px" y="0px"
	 width="52.209px" height="51.876px" viewBox="0 0.117 52.209 51.876" enable-background="new 0 0.117 52.209 51.876"
	 xml:space="preserve">
<g>
	<path fill="#843FFE" d="M-85.063,48.234c-2.105,2.511-5.822,2.86-8.302,0.781l-48.024-40.239c-2.479-2.078-2.786-5.797-0.681-8.307
		l0,0c2.103-2.511,5.818-2.862,8.299-0.784l48.025,40.24C-83.267,42.004-82.96,45.725-85.063,48.234L-85.063,48.234z"/>
	<path fill="#843FFE" d="M-142.077,48.229c-2.103-2.514-1.795-6.233,0.686-8.31l48.036-40.228c2.48-2.076,6.195-1.727,8.295,0.785
		l0,0c2.105,2.511,1.799,6.229-0.682,8.308l-48.036,40.228C-136.257,51.089-139.975,50.738-142.077,48.229L-142.077,48.229z"/>
</g>
<path fill="#843FFE" d="M52.209,6.559c0,3.558-2.884,6.441-6.441,6.441H6.441C2.884,13,0,10.116,0,6.559l0,0
	c0-3.558,2.884-6.442,6.441-6.442h39.326C49.325,0.117,52.209,3.001,52.209,6.559L52.209,6.559z"/>
<path fill="#843FFE" d="M52.209,26.055c0,3.558-2.884,6.441-6.441,6.441H6.441C2.884,32.496,0,29.613,0,26.055l0,0
	c0-3.558,2.884-6.442,6.441-6.442h39.326C49.325,19.613,52.209,22.498,52.209,26.055L52.209,26.055z"/>
<path fill="#843FFE" d="M52.209,45.552c0,3.558-2.884,6.441-6.441,6.441H6.441C2.884,51.993,0,49.109,0,45.552l0,0
	c0-3.558,2.884-6.442,6.441-6.442h39.326C49.325,39.109,52.209,41.994,52.209,45.552L52.209,45.552z"/>
</svg>
