<?xml version="1.0" encoding="utf-8"?>
<!-- Generator: Adobe Illustrator 16.0.0, SVG Export Plug-In . SVG Version: 6.00 Build 0)  -->
<!DOCTYPE svg PUBLIC "-//W3C//DTD SVG 1.1//EN" "http://www.w3.org/Graphics/SVG/1.1/DTD/svg11.dtd">
<svg version="1.1" id="Layer_1" xmlns="http://www.w3.org/2000/svg" xmlns:xlink="http://www.w3.org/1999/xlink" x="0px" y="0px"
	 width="52.209px" height="51.876px" viewBox="0 0.117 52.209 51.876" enable-background="new 0 0.117 52.209 51.876"
	 xml:space="preserve">
<g>
	<path fill="#843FFE" d="M50.072,2.24c2.849,2.829,2.849,7.418,0,10.249l-37.62,37.38c-2.849,2.831-7.468,2.831-10.315,0l0,0
		c-2.849-2.831-2.849-7.42,0-10.251L39.757,2.24C42.605-0.59,47.224-0.59,50.072,2.24L50.072,2.24z"/>
	<path fill="#843FFE" d="M50.072,49.869c-2.85,2.831-7.469,2.833-10.317,0.002l-37.62-37.38C-0.711,9.66-0.713,5.071,2.136,2.24l0,0
		c2.849-2.832,7.467-2.832,10.315,0l37.621,37.38C52.92,42.451,52.921,47.038,50.072,49.869L50.072,49.869z"/>
</g>
<g>
	<path fill="#843FFE" d="M-85.063,48.234c-2.105,2.511-5.822,2.86-8.302,0.781l-48.024-40.239c-2.479-2.078-2.786-5.797-0.681-8.307
		l0,0c2.103-2.511,5.818-2.862,8.299-0.784l48.025,40.24C-83.267,42.004-82.96,45.725-85.063,48.234L-85.063,48.234z"/>
	<path fill="#843FFE" d="M-142.077,48.229c-2.103-2.514-1.795-6.233,0.686-8.31l48.036-40.228c2.48-2.076,6.195-1.727,8.295,0.785
		l0,0c2.105,2.511,1.799,6.229-0.682,8.308l-48.036,40.228C-136.257,51.089-139.975,50.738-142.077,48.229L-142.077,48.229z"/>
</g>
</svg>
