<?xml version="1.0" encoding="utf-8"?>
<!-- Generator: Adobe Illustrator 16.0.0, SVG Export Plug-In . SVG Version: 6.00 Build 0)  -->
<!DOCTYPE svg PUBLIC "-//W3C//DTD SVG 1.1//EN" "http://www.w3.org/Graphics/SVG/1.1/DTD/svg11.dtd">
<svg version="1.1" id="Layer_1" xmlns="http://www.w3.org/2000/svg" xmlns:xlink="http://www.w3.org/1999/xlink" x="0px" y="0px"
	 width="60px" height="60px" viewBox="0 0 60 60" enable-background="new 0 0 60 60" xml:space="preserve">
<g>
	<path fill="#FFFFFF" d="M29.906,0.195C13.39,0.195,0,13.585,0,30.101C0,46.609,13.39,60,29.906,60
		c16.509,0,29.898-13.391,29.898-29.899C59.805,13.585,46.415,0.195,29.906,0.195 M41.271,23.761
		c0.009,0.268,0.017,0.536,0.017,0.803c0,8.199-6.089,17.659-17.218,17.659c-3.418,0-6.6-1.031-9.279-2.787
		c0.473,0.056,0.954,0.086,1.441,0.086c2.836,0,5.45-0.994,7.523-2.654c-2.655-0.056-4.884-1.843-5.656-4.31
		c0.371,0.072,0.749,0.112,1.135,0.112c0.559,0,1.158-0.078,1.662-0.222c-2.772-0.567-4.797-3.079-4.797-6.088V26.29
		c0.788,0.457,1.694,0.74,2.686,0.771c-1.63-1.111-2.725-3.017-2.725-5.167c0-1.134,0.284-2.205,0.804-3.118
		c2.985,3.757,7.435,6.222,12.468,6.482c-0.11-0.458-0.161-0.93-0.161-1.411c0-3.426,2.707-6.206,6.046-6.206
		c1.74,0,3.314,0.748,4.417,1.954c1.379-0.276,2.67-0.788,3.845-1.505c-0.449,1.449-1.411,2.67-2.664,3.435
		c1.229-0.15,2.394-0.481,3.474-0.977C43.485,21.792,42.453,22.886,41.271,23.761"/>
</g>
</svg>
